<svg version="1.1" id="Layer_1" xmlns="http://www.w3.org/2000/svg" xmlns:xlink="http://www.w3.org/1999/xlink" x="0px" y="0px"
	 width="100%" viewBox="0 0 450 112" enable-background="new 0 0 450 112" xml:space="preserve">
<path fill="#FCFEFE" opacity="1.000000" stroke="none" 
	d="
M451.000000,19.000004 
	C451.000000,50.302784 451.000000,81.605568 451.000000,113.000000 
	C332.979126,113.000000 214.958221,113.000000 96.545410,112.703873 
	C96.875107,112.075325 97.596695,111.742905 98.307060,111.400246 
	C98.295837,111.390007 98.318306,111.382835 98.633102,111.352448 
	C99.652306,110.897263 100.356705,110.472458 101.394516,109.940338 
	C103.909920,107.597885 106.091904,105.362755 108.578743,102.998604 
	C109.662277,101.370506 110.440956,99.871437 111.544449,98.131119 
	C112.198227,95.259071 112.527191,92.628288 112.938622,89.535355 
	C112.981232,67.716339 112.941376,46.359474 112.979660,24.597336 
	C111.894135,12.901858 107.758415,4.002455 95.092911,1.694905 
	C95.041588,1.466449 95.000000,1.000000 95.000000,1.000000 
	C213.666672,1.000000 332.333344,1.000000 451.000000,1.000000 
	C451.000000,5.395593 451.000000,9.723669 450.682556,14.380888 
	C448.204834,13.197544 445.966064,10.403853 443.906189,10.530065 
	C441.813354,10.658293 439.082764,13.284381 438.052246,15.482642 
	C434.622345,22.799301 431.830597,30.415119 428.496552,38.116470 
	C427.638794,39.850323 427.105286,41.394302 426.514252,42.915943 
	C422.652100,52.859249 418.777435,62.797707 414.641785,72.917572 
	C413.614014,74.012505 412.851349,74.927620 412.066589,75.883636 
	C412.044495,75.924530 412.134308,75.948494 412.085693,75.577980 
	C408.295685,66.149017 404.554260,57.090576 400.821869,47.673660 
	C399.655701,44.787155 398.480499,42.259117 397.273132,39.787674 
	C397.240997,39.844269 397.369263,39.821980 397.323761,39.466858 
	C396.899170,38.256332 396.520111,37.400925 396.057190,36.260429 
	C395.366394,35.491837 394.759399,35.008335 393.935608,34.267853 
	C391.223053,34.546535 388.033997,34.308907 386.384277,35.788090 
	C383.466705,38.404125 385.112701,41.748768 387.278625,44.866768 
	C387.936981,47.772129 386.507111,50.896553 389.245300,52.969131 
	C385.203003,56.450130 390.317352,58.679794 389.418823,61.735546 
	C390.916931,61.419067 391.870026,61.217720 392.986572,61.344261 
	C394.022705,63.642265 394.927582,65.598839 395.762604,67.584785 
	C399.809204,77.208946 403.837067,86.840981 407.994995,96.774872 
	C412.685272,100.872627 416.454376,100.258034 418.793091,95.111023 
	C420.917633,90.435417 422.834351,85.660439 424.705109,80.875488 
	C428.561066,71.012695 432.325317,61.114040 436.432983,51.040348 
	C440.539612,41.670143 444.298065,32.471687 448.182526,23.326767 
	C448.845062,21.767010 450.047180,20.436447 451.000000,19.000004 
M353.728851,55.472244 
	C353.409637,55.345459 353.090454,55.218674 352.049866,55.073498 
	C347.535187,53.636475 343.020538,52.199448 337.859131,50.342331 
	C333.449493,48.929695 328.934875,47.777592 324.651672,46.051292 
	C315.130463,42.213924 313.346558,35.830349 319.775726,26.939177 
	C323.712646,25.559578 327.621155,24.089958 331.597015,22.833618 
	C334.041718,22.061115 336.589478,21.614664 339.792999,21.026718 
	C340.739044,21.092793 341.685089,21.158869 342.506226,21.216219 
	C343.046265,19.523886 343.643982,18.020311 343.984589,16.460596 
	C344.233643,15.320236 344.144592,14.106044 344.206268,12.924769 
	C343.006409,13.351692 341.806519,13.778616 340.210480,13.648144 
	C338.137512,12.499710 335.873291,10.135277 334.026581,10.425696 
	C327.937195,11.383350 321.998840,13.301394 315.262787,14.927320 
	C310.378387,17.982666 306.541565,22.200945 304.872131,27.582617 
	C300.344604,42.178078 306.739624,55.320213 325.737854,59.327461 
	C325.737854,59.327461 325.801849,59.271187 326.263184,59.838230 
	C329.489044,60.606018 332.714874,61.373806 336.510468,62.569695 
	C340.079529,64.019524 343.648560,65.469360 346.508850,67.034637 
	C346.176270,70.013901 345.843719,72.993164 345.448090,76.537270 
	C349.794281,73.297638 350.253113,76.395355 350.855072,79.002136 
	C348.632385,81.033012 346.409668,83.063889 343.361694,85.015358 
	C341.181030,84.759399 339.000397,84.503433 336.670776,84.229988 
	C336.790314,85.212708 336.886322,86.002075 336.171722,87.018562 
	C334.772156,87.053673 333.372620,87.088783 331.493866,86.940231 
	C330.657349,86.950394 329.820831,86.960548 328.699097,86.753815 
	C328.699097,86.753815 328.347809,86.824638 327.733551,86.452888 
	C326.158813,85.921478 324.584106,85.390068 322.991302,84.132652 
	C321.326294,83.094284 319.661316,82.055923 317.982544,80.303574 
	C317.688507,76.855637 315.742065,78.290382 313.495453,78.856544 
	C313.343384,78.744392 313.191345,78.632248 313.030548,77.903076 
	C312.926239,77.149681 312.821930,76.396286 312.545258,74.398369 
	C311.702362,76.334877 311.349762,77.144897 310.324585,78.116356 
	C309.210907,78.387283 308.097260,78.658218 306.587189,78.491257 
	C306.102722,79.083794 305.618256,79.676331 304.945801,80.978310 
	C305.412872,83.704002 304.923889,87.372185 306.516785,88.988022 
	C312.579407,95.137924 320.160370,98.674232 329.750061,99.260399 
	C337.984222,99.323051 346.342682,99.952744 353.649902,94.094818 
	C353.916595,94.029320 354.085663,93.863976 354.755157,93.435287 
	C355.204865,93.033943 355.654572,92.632607 356.748230,92.000732 
	C363.573242,86.421616 365.015381,78.812073 364.961792,69.752548 
	C365.693146,66.514313 367.354370,62.922123 361.572327,61.986477 
	C361.572327,61.986477 361.134918,61.984138 360.659485,61.597366 
	C360.277069,61.125431 359.894653,60.653496 360.229095,60.040848 
	C360.446381,59.240379 360.663635,58.439915 360.880920,57.639465 
	C359.833710,57.946777 358.786530,58.254089 357.201752,58.307087 
	C356.792023,57.888218 356.382294,57.469349 355.690216,56.542889 
	C355.161316,56.346714 354.632416,56.150539 354.034760,55.984303 
	C354.034760,55.984303 354.019806,55.910824 353.728851,55.472244 
M283.640991,86.521469 
	C283.254395,86.469429 282.867767,86.417389 281.999207,86.413155 
	C281.521515,86.493172 281.043823,86.573181 280.905121,85.843315 
	C280.353577,85.563438 279.802063,85.283562 279.250519,85.003685 
	C279.135223,85.678322 279.019928,86.352966 278.858582,87.587296 
	C278.336548,88.088257 277.814545,88.589218 276.671051,89.343262 
	C276.471710,89.955498 276.272369,90.567734 276.094635,91.940674 
	C276.388855,93.648224 276.683075,95.355766 276.985718,97.498123 
	C277.297119,97.741951 277.608521,97.985779 278.672119,98.381836 
	C281.665588,99.094551 284.726746,100.023811 287.012360,95.977386 
	C289.796082,93.433258 289.863831,90.488152 286.665680,88.769234 
	C286.446320,88.499977 286.226959,88.230721 285.661102,87.471115 
	C285.095093,87.324188 284.529114,87.177269 283.991180,86.995743 
	C283.991180,86.995743 283.981049,87.037918 283.640991,86.521469 
M374.433807,20.072596 
	C374.112122,20.375853 373.790466,20.679108 373.468811,20.982376 
	C373.677368,21.162979 373.885895,21.343584 374.094452,21.524187 
	C374.396301,21.016003 374.698151,20.507820 375.607635,19.995951 
	C375.809998,19.987217 376.012390,19.978485 376.602325,20.208504 
	C376.804993,20.443924 376.937683,20.713737 376.922424,21.686327 
	C376.269104,22.709417 375.615753,23.732510 374.962433,24.755602 
	C375.119720,25.117460 375.277008,25.479319 375.434296,25.841177 
	C377.954132,24.850245 380.473969,23.859310 383.365570,22.560989 
	C383.365570,22.560989 383.841248,22.480930 384.065491,23.038740 
	C385.762512,22.940311 388.587341,28.198668 389.560120,22.195246 
	C394.446869,19.831535 389.356110,17.774014 389.977753,15.732359 
	C390.535370,13.803575 391.093018,11.874790 391.650635,9.946004 
	C389.478180,9.906199 387.305725,9.846504 385.133209,9.841844 
	C384.645630,9.840797 384.157654,10.032258 382.959686,10.110681 
	C381.780304,10.146993 380.600952,10.183306 378.753693,9.923274 
	C377.758453,9.680988 376.763245,9.438703 375.651367,9.168023 
	C375.817139,10.817052 375.932556,11.965355 375.990356,13.587626 
	C375.990356,13.587626 375.716919,13.979023 374.974579,13.990296 
	C374.056335,14.447558 373.138062,14.904821 372.219818,15.362086 
	C373.209930,15.872887 374.200012,16.383688 375.131531,16.968500 
	C375.131531,16.968500 375.115723,16.875435 375.022644,17.654055 
	C375.015106,18.436165 375.007568,19.218273 374.433807,20.072596 
M348.432220,29.071848 
	C348.111359,29.375608 347.790497,29.679371 347.469666,29.983135 
	C347.677979,30.163406 347.886261,30.343676 348.094574,30.523949 
	C348.397247,30.016550 348.699921,29.509151 349.407501,28.753054 
	C349.393036,28.406267 349.378601,28.059483 349.364136,27.712696 
	C349.241882,28.140854 349.119598,28.569012 348.432220,29.071848 
M245.141830,61.651939 
	C244.661377,61.978374 244.180923,62.304806 243.639999,62.631165 
	C243.639999,62.631165 243.579590,62.633999 242.924896,62.828068 
	C232.500137,67.719368 225.729172,82.774178 227.170547,93.897850 
	C227.405029,95.707428 229.685959,97.251831 231.373306,99.161201 
	C231.373306,99.161201 231.788177,99.264854 232.123566,99.683037 
	C232.456985,99.658684 232.790390,99.634331 234.042191,99.668190 
	C241.750839,99.564400 249.459503,99.460609 257.944641,99.573029 
	C262.208282,99.433632 264.490112,97.178169 264.224701,92.968979 
	C263.945618,88.542587 260.794281,87.324471 256.885620,87.330383 
	C251.197220,87.338982 245.508804,87.332588 239.755020,87.332588 
	C241.413284,77.398056 248.181030,73.486206 255.838699,70.341553 
	C255.838699,70.341553 255.906952,70.252129 256.744904,70.201843 
	C258.830078,69.745529 260.915283,69.289223 263.718292,68.715591 
	C268.149017,66.116623 272.579712,63.517647 277.612488,60.986748 
	C277.877838,60.699955 278.143188,60.413166 278.997589,60.106949 
	C279.694122,59.472687 280.390625,58.838425 281.765472,58.023727 
	C283.024780,56.357983 284.523163,54.820858 285.500946,53.003628 
	C289.199921,46.129116 288.349548,38.705181 288.116486,30.665142 
	C288.612335,27.676220 289.084503,24.699390 284.927063,24.117167 
	C284.927063,24.117167 284.829163,24.217787 284.946259,23.413933 
	C285.514893,21.338173 286.083496,19.262413 286.819153,16.576891 
	C284.358978,17.124310 282.033691,17.641703 279.099274,17.882339 
	C267.034241,8.605898 254.323776,7.674598 240.300064,15.058312 
	C231.893234,20.751287 226.754166,28.251537 227.012466,38.813480 
	C227.102570,42.497360 228.787048,44.935764 232.415833,45.461288 
	C236.033875,45.985264 237.847076,44.041111 238.306335,40.421249 
	C238.598129,38.121471 239.220276,35.807350 240.065323,33.644638 
	C242.528854,27.339645 247.891556,24.560493 254.833771,22.771990 
	C260.045654,24.055637 265.257507,25.339285 270.682770,26.972263 
	C270.856873,27.200230 271.085144,27.339186 271.472015,27.462959 
	C271.472015,27.462959 271.536591,27.573357 271.795502,28.185202 
	C273.179565,30.832905 274.563629,33.480606 275.878998,36.989250 
	C276.579376,44.573414 274.301147,50.598335 266.240173,54.105949 
	C260.797485,56.017597 255.354767,57.929245 249.238556,59.868191 
	C248.071396,60.461433 246.904251,61.054676 245.914780,61.633934 
	C245.914780,61.633934 245.743317,61.585258 245.141830,61.651939 
M132.993744,87.996727 
	C132.993744,87.996727 132.934036,87.968285 132.199265,87.974731 
	C131.280975,88.553986 129.502335,89.319702 129.581039,89.682892 
	C130.189911,92.492432 127.703133,96.444664 132.834732,98.005562 
	C133.218994,98.358040 133.603271,98.710518 134.362076,99.551506 
	C135.578674,99.479919 136.795288,99.408333 138.646942,99.108589 
	C139.092896,99.052406 139.538834,98.996231 140.070267,99.544724 
	C141.678375,99.455017 143.286469,99.365318 144.567169,99.293884 
	C144.567169,94.998192 144.567169,91.212395 144.567169,87.426590 
	C144.143860,87.145790 143.720551,86.864983 143.297226,86.584183 
	C142.858109,87.403847 142.419006,88.223511 141.431702,88.816856 
	C140.621964,88.257225 139.812210,87.697594 138.889893,86.765358 
	C138.596573,86.803589 138.303268,86.841827 137.336945,86.952629 
	C136.887650,86.918175 136.438339,86.883720 135.761765,86.556557 
	C135.507217,86.722763 135.252670,86.888969 134.770340,87.251221 
	C134.770340,87.251221 134.486893,87.151306 133.883926,87.185318 
	C133.582870,87.434166 133.281830,87.683022 132.993744,87.996727 
M363.844055,22.647982 
	C363.706390,22.354301 363.487000,22.147196 362.884033,21.751848 
	C362.884033,21.751848 362.810883,21.350260 363.131256,20.638943 
	C363.079773,19.509922 363.028290,18.380901 362.976807,17.251881 
	C361.965698,17.914711 360.954620,18.577541 359.171753,19.196957 
	C356.815063,20.149403 354.458374,21.101849 351.525513,21.669209 
	C350.608612,21.223270 349.691681,20.777332 348.774780,20.331383 
	C348.596863,20.905214 348.095337,21.650656 348.293762,22.024904 
	C349.536896,24.369162 350.936157,26.630634 352.793488,29.208475 
	C353.534058,29.843954 354.274597,30.479433 355.250793,31.507332 
	C355.789673,31.521490 356.328552,31.535648 357.603363,31.450323 
	C358.097626,31.466764 358.591888,31.483206 359.568481,32.029835 
	C362.154877,32.428314 364.741272,32.826794 368.822144,33.455528 
	C366.732574,29.033283 365.316620,26.036631 363.979095,23.026281 
	C363.979095,23.026281 363.946747,23.099035 363.844055,22.647982 
M164.287521,19.210489 
	C164.142471,19.758476 163.997421,20.306463 163.315414,21.299063 
	C156.981354,34.785843 150.647293,48.272625 144.155853,61.049438 
	C143.123535,61.268162 141.257004,61.344524 141.191513,61.728241 
	C140.688965,64.673218 140.536392,67.677925 140.466110,70.889420 
	C140.534836,71.109055 140.474670,71.284317 140.034149,71.900780 
	C138.534744,72.040024 136.062973,71.379295 137.729996,74.352295 
	C138.957901,76.542114 140.426285,78.597099 141.656998,80.509369 
	C143.033768,79.501617 144.122726,78.704536 145.914230,77.796326 
	C146.859695,77.828270 147.805176,77.860207 149.471344,78.018661 
	C150.509949,78.098083 151.548538,78.177513 152.587143,78.256935 
	C152.313217,77.472816 152.039307,76.688705 151.997757,75.220329 
	C158.390030,61.592091 164.782303,47.963848 171.539703,33.557144 
	C173.202698,35.603146 174.596451,37.317879 176.195297,39.592354 
	C176.495148,40.058727 176.794983,40.525097 177.272766,41.677887 
	C181.905106,51.453892 186.537460,61.229893 191.166672,71.456451 
	C191.228851,71.784241 191.417694,72.002434 191.841522,72.744461 
	C192.246109,73.495750 192.650681,74.247047 193.092178,75.629486 
	C193.467255,76.611099 193.842316,77.592705 193.906677,79.285950 
	C193.582382,83.143112 193.258087,87.000275 192.933792,90.857437 
	C193.118927,90.870209 193.304062,90.882973 193.489197,90.895737 
	C193.958252,89.721458 194.427322,88.547173 194.498764,88.368324 
	C196.737381,90.002029 198.798813,91.506424 201.278107,93.566338 
	C201.832397,94.583023 202.272629,95.685616 202.961731,96.600784 
	C205.308533,99.717422 208.797058,100.784302 211.555588,98.331314 
	C213.244461,96.829498 214.443527,92.719734 213.597443,90.758240 
	C208.106888,78.029472 201.994263,65.569023 196.052689,52.459908 
	C195.816574,52.193256 195.580460,51.926605 195.410339,51.543079 
	C195.410339,51.543079 195.377625,51.412903 195.243759,50.747253 
	C190.150757,39.857117 185.057755,28.966982 179.899033,17.352049 
	C175.701187,10.644545 173.492233,9.130301 169.425690,11.723421 
	C167.237701,13.118635 166.268341,16.424896 164.287521,19.210489 
M353.203003,52.348164 
	C353.933228,52.034271 354.663422,51.720375 355.393646,51.406479 
	C355.270020,51.019463 355.146423,50.632446 355.022797,50.245430 
	C353.631195,50.559402 352.239563,50.873379 349.686493,51.449398 
	C351.473694,52.090641 352.048676,52.296947 353.203003,52.348164 
M273.442993,93.677284 
	C273.943451,93.520302 274.443878,93.363312 274.944336,93.206322 
	C274.565460,92.634102 274.186584,92.061882 273.807709,91.489662 
	C273.598816,92.028938 273.389893,92.568214 273.442993,93.677284 
M344.331482,24.433735 
	C344.707031,25.298254 345.082611,26.162775 345.458191,27.027294 
	C345.781555,26.835667 346.104919,26.644039 346.428284,26.452412 
	C345.750549,25.572510 345.072845,24.692608 344.331482,24.433735 
M367.448303,24.636471 
	C367.832703,24.941029 368.217072,25.245588 368.601471,25.550148 
	C368.800140,25.177298 368.998810,24.804449 369.197479,24.431599 
	C368.745117,24.372244 368.292755,24.312891 367.448303,24.636471 
M367.924835,62.193428 
	C368.212372,61.809486 368.499939,61.425549 368.787506,61.041626 
	C368.413910,60.864990 368.040314,60.688358 367.666718,60.511719 
	C367.619995,60.943577 367.573273,61.375435 367.924835,62.193428 
M330.053192,84.164536 
	C330.202667,84.414421 330.303772,84.793877 330.516785,84.873360 
	C330.688263,84.937325 330.995056,84.638496 331.241821,84.500641 
	C330.994781,84.362297 330.747742,84.223953 330.053192,84.164536 
M368.178986,66.031815 
	C368.273651,66.435532 368.368286,66.839249 368.462952,67.242950 
	C368.583099,67.154625 368.814789,67.050911 368.805054,66.980507 
	C368.748535,66.570648 368.635284,66.168617 368.178986,66.031815 
M370.475586,10.365380 
	C370.529266,10.157040 370.582916,9.948699 370.636536,9.740341 
	C370.505035,9.874107 370.373505,10.007874 370.475586,10.365380 
M137.584595,64.516632 
	C137.584595,64.516632 137.477966,64.579559 137.584595,64.516632 
M278.517151,82.411743 
	C278.517151,82.411743 278.583832,82.523178 278.517151,82.411743 
M274.413086,85.483032 
	C274.413086,85.483032 274.523621,85.417259 274.413086,85.483032 
z"/>
<path fill="#2D3C8D" opacity="1.000000" stroke="none" 
	d="
M18.000000,1.000000 
	C18.000000,1.000000 18.500000,1.000000 19.023724,1.316255 
	C24.028852,1.764348 28.510258,1.896185 32.907120,2.410232 
	C28.918610,3.123755 25.014641,3.455069 21.601320,3.744743 
	C22.218626,4.146369 23.463604,4.956367 24.921354,5.904797 
	C23.849997,6.729552 23.124403,7.288130 22.615730,7.679718 
	C23.464743,9.121555 24.630087,10.336295 24.910473,11.729177 
	C25.581282,15.061550 25.852417,18.475782 26.252562,21.860790 
	C26.574841,24.587103 28.104458,25.049156 30.264805,24.489834 
	C28.639643,26.873817 26.875191,28.777851 25.739822,31.002890 
	C24.312464,33.800148 23.325266,36.834305 22.294430,39.816795 
	C21.715569,41.491604 21.431812,43.268402 20.699724,44.977798 
	C19.452305,45.273212 18.520264,45.590076 17.588223,45.906944 
	C18.390141,47.662971 19.192060,49.418995 19.959089,51.098618 
	C19.557121,51.451027 18.267086,52.023895 18.141228,52.788414 
	C17.579317,56.201740 17.087427,59.666801 17.048275,63.118599 
	C16.920029,74.425690 17.031895,85.735275 16.984896,97.043633 
	C16.965267,101.766571 18.136215,106.910805 12.614316,110.007492 
	C6.185998,107.185593 3.821501,101.408241 1.000000,96.000000 
	C1.000000,70.312439 1.000000,44.624878 1.331361,18.329372 
	C3.727129,8.843947 10.401407,4.470434 18.000000,1.000000 
z"/>
<path fill="#26509E" opacity="1.000000" stroke="none" 
	d="
M98.318283,111.410484 
	C97.596695,111.742905 96.875107,112.075325 96.076752,112.703873 
	C88.645744,113.000000 81.291496,113.000000 73.467880,112.608887 
	C70.620689,107.352028 68.242851,102.486282 65.771454,97.429085 
	C64.333130,96.976936 62.491009,96.397865 60.965305,95.610031 
	C64.073021,93.879616 66.864319,92.357956 69.985458,90.970863 
	C71.259605,90.703285 72.414116,90.516571 73.098885,89.848427 
	C74.123016,88.849159 74.676079,86.639168 75.676865,86.477753 
	C78.927917,85.953415 79.301048,83.623466 80.050659,81.249916 
	C80.294960,80.476372 81.187378,79.907524 81.811516,79.634186 
	C81.110687,83.441444 81.444443,85.966270 86.230560,85.248779 
	C87.317360,87.230354 88.725594,88.862503 88.897278,90.615730 
	C89.495010,96.719757 89.664421,102.865723 89.998337,108.997871 
	C90.000000,109.000000 90.004196,109.003227 90.091400,109.394638 
	C92.891830,110.327522 95.605057,110.869003 98.318283,111.410484 
z"/>
<path fill="#0AAEEE" opacity="1.000000" stroke="none" 
	d="
M428.794220,37.916260 
	C431.830597,30.415119 434.622345,22.799301 438.052246,15.482642 
	C439.082764,13.284381 441.813354,10.658293 443.906189,10.530065 
	C445.966064,10.403853 448.204834,13.197544 450.682556,14.855016 
	C451.000000,16.066669 451.000000,17.133339 451.000000,18.600006 
	C450.047180,20.436447 448.845062,21.767010 448.182526,23.326767 
	C444.298065,32.471687 440.539612,41.670143 436.265381,50.708366 
	C434.558746,49.266171 432.058502,47.132816 432.282928,46.791645 
	C435.450043,41.976688 431.139099,40.363422 428.794220,37.916260 
z"/>
<path fill="#274A9A" opacity="1.000000" stroke="none" 
	d="
M60.648888,95.818787 
	C62.491009,96.397865 64.333130,96.976936 65.771454,97.429085 
	C68.242851,102.486282 70.620689,107.352028 72.999268,112.608887 
	C70.629440,113.000000 68.258888,113.000000 65.178207,112.709229 
	C62.310040,112.268799 60.151993,112.119148 57.932243,111.612473 
	C56.347336,110.500038 54.794804,109.797272 53.311024,108.971046 
	C52.288555,108.401688 51.361309,107.661331 50.391502,106.997398 
	C51.198681,106.336166 52.103355,105.762215 52.791080,104.994026 
	C53.933475,103.717964 55.245213,102.451767 55.908936,100.929909 
	C56.535988,99.492142 56.420223,97.730423 56.884514,96.285744 
	C58.308186,96.246460 59.478535,96.032623 60.648888,95.818787 
z"/>
<path fill="#F4F6F8" opacity="1.000000" stroke="none" 
	d="
M17.529547,1.000000 
	C10.401407,4.470434 3.727129,8.843947 1.331361,17.860714 
	C1.000000,12.407914 1.000000,6.815828 1.000000,1.000000 
	C6.350975,1.000000 11.705034,1.000000 17.529547,1.000000 
z"/>
<path fill="#F5F7F9" opacity="1.000000" stroke="none" 
	d="
M1.000000,96.470459 
	C3.821501,101.408241 6.185998,107.185593 12.617154,109.987984 
	C12.961773,110.019226 12.931037,110.042511 13.114429,110.281158 
	C13.856122,110.708565 14.414423,110.897324 14.967520,111.055634 
	C14.962317,111.025177 14.916644,111.067184 15.136862,111.309067 
	C16.238052,112.033966 17.119026,112.516983 18.000000,113.000000 
	C12.407915,113.000000 6.815830,113.000000 1.000000,113.000000 
	C1.000000,107.649025 1.000000,102.294968 1.000000,96.470459 
z"/>
<path fill="#4762A9" opacity="1.000000" stroke="none" 
	d="
M57.993946,111.969498 
	C60.151993,112.119148 62.310040,112.268799 64.734039,112.709229 
	C49.979103,113.000000 34.958210,113.000000 19.461132,112.747696 
	C18.989410,112.327156 18.993870,112.158936 19.467117,111.987320 
	C26.954969,111.980797 33.974037,111.977669 41.461357,111.986420 
	C47.284389,111.988701 52.639168,111.979103 57.993946,111.969498 
z"/>
<path fill="#4763A9" opacity="1.000000" stroke="none" 
	d="
M32.991665,2.028022 
	C28.510258,1.896185 24.028852,1.764348 19.273724,1.316255 
	C33.354229,1.000000 47.708454,1.000000 62.532299,1.236767 
	C63.001915,1.473534 63.004498,1.947065 62.566559,1.965104 
	C60.083347,1.999589 58.038078,2.016034 55.524742,2.022014 
	C47.701675,2.017040 40.346672,2.022531 32.991665,2.028022 
z"/>
<path fill="#436CAF" opacity="1.000000" stroke="none" 
	d="
M63.004498,1.947065 
	C63.004498,1.947065 63.001915,1.473534 63.000957,1.236767 
	C73.354225,1.000000 83.708458,1.000000 94.531342,1.000000 
	C95.000000,1.000000 95.041588,1.466449 94.733734,1.725134 
	C93.945534,1.999403 93.465195,2.014988 92.518303,2.013207 
	C83.365982,2.006440 74.680222,2.017038 65.620667,2.017088 
	C64.499428,1.986715 63.751961,1.966890 63.004498,1.947065 
z"/>
<path fill="#2D3C8D" opacity="1.000000" stroke="none" 
	d="
M18.998333,111.990723 
	C18.993870,112.158936 18.989410,112.327156 18.992474,112.747696 
	C19.000000,113.000000 18.500000,113.000000 18.250000,113.000000 
	C17.119026,112.516983 16.238052,112.033966 15.476305,111.264145 
	C16.729797,111.315140 17.864065,111.652931 18.998333,111.990723 
z"/>
<path fill="#2456A4" opacity="1.000000" stroke="none" 
	d="
M92.984856,2.030571 
	C93.465195,2.014988 93.945534,1.999403 94.785049,1.953590 
	C107.758415,4.002455 111.894135,12.901858 112.628006,24.595594 
	C111.414566,24.364462 110.332817,23.883305 109.910263,23.062714 
	C109.069077,21.429134 108.590355,19.608908 107.961891,17.865791 
	C107.548988,18.015770 107.136093,18.165749 106.723190,18.315729 
	C106.723190,41.687710 106.723190,65.059692 106.723190,88.544830 
	C108.694237,89.011696 110.775192,89.504593 112.856155,89.997498 
	C112.527191,92.628288 112.198227,95.259071 111.394958,97.798187 
	C110.786606,96.783577 110.767792,95.823738 110.487274,94.947693 
	C110.184410,94.001831 109.804375,92.956284 109.120552,92.312843 
	C108.810265,92.020874 107.293968,92.359238 107.015411,92.824860 
	C106.487244,93.707672 106.039742,95.030815 106.338188,95.904915 
	C106.631775,96.764778 107.891960,97.294617 107.797379,97.218292 
	C108.008301,99.833923 108.141106,101.480782 108.273903,103.127640 
	C106.091904,105.362755 103.909920,107.597885 101.078918,109.909058 
	C99.726028,110.451012 99.022163,110.916924 98.318306,111.382835 
	C98.318306,111.382835 98.295837,111.390007 98.307060,111.400246 
	C95.605057,110.869003 92.891830,110.327522 90.227646,109.339340 
	C90.183350,108.927002 90.090019,108.961372 89.996689,108.995743 
	C89.664421,102.865723 89.495010,96.719757 88.897278,90.615730 
	C88.725594,88.862503 87.317360,87.230354 86.261200,84.866318 
	C86.992226,80.544212 87.938126,76.898476 88.919273,72.795425 
	C88.756371,67.079208 89.783775,61.584133 86.302963,56.858582 
	C87.736748,55.300423 88.749664,53.777706 90.025917,52.522816 
	C93.119133,49.481384 92.444229,47.076084 89.018661,44.597656 
	C89.645836,43.345108 90.184547,41.793205 90.902817,41.705097 
	C96.369965,41.034439 96.068420,37.165810 96.022141,33.232830 
	C95.942268,26.446968 95.865089,19.655264 96.077469,12.875115 
	C96.146431,10.673307 97.123863,8.499956 97.722443,6.170881 
	C95.359970,6.170881 92.670280,6.170881 89.980591,6.170881 
	C89.950851,5.886740 89.921120,5.602599 89.891380,5.318459 
	C90.960838,5.115721 92.030296,4.912984 93.340485,4.664612 
	C92.299347,3.924199 91.653587,3.464959 91.301338,2.984635 
	C92.058189,2.652557 92.521523,2.341563 92.984856,2.030571 
M105.588943,16.516867 
	C105.588943,16.516867 105.476852,16.584103 105.588943,16.516867 
z"/>
<path fill="#09ABEA" opacity="1.000000" stroke="none" 
	d="
M428.496552,38.116470 
	C431.139099,40.363422 435.450043,41.976688 432.282928,46.791645 
	C432.058502,47.132816 434.558746,49.266171 435.959656,50.898159 
	C432.325317,61.114040 428.561066,71.012695 424.705109,80.875488 
	C422.834351,85.660439 420.917633,90.435417 418.793091,95.111023 
	C416.454376,100.258034 412.685272,100.872627 408.030762,96.289696 
	C407.943115,88.210976 407.943115,80.922066 407.943115,72.738525 
	C410.140350,74.421349 411.137329,75.184921 412.134308,75.948494 
	C412.134308,75.948494 412.044495,75.924530 412.044342,76.245819 
	C412.244263,77.238754 412.444305,77.910416 412.644379,78.582077 
	C412.985870,78.594284 413.327362,78.606499 413.668854,78.618713 
	C414.081512,76.658394 414.494202,74.698074 414.906891,72.737755 
	C418.777435,62.797707 422.652100,52.859249 426.514252,42.915943 
	C427.105286,41.394302 427.638794,39.850323 428.496552,38.116470 
z"/>
<path fill="#187EC4" opacity="1.000000" stroke="none" 
	d="
M231.021011,98.918793 
	C229.685959,97.251831 227.405029,95.707428 227.170547,93.897850 
	C225.729172,82.774178 232.500137,67.719368 243.499542,63.028748 
	C246.237534,64.359711 248.400894,65.489998 250.661804,66.671242 
	C250.308517,67.876984 249.975266,69.014366 249.585464,70.344742 
	C251.913574,70.344742 253.821365,70.344742 255.729141,70.344742 
	C248.181030,73.486206 241.413284,77.398056 239.755020,87.332588 
	C245.508804,87.332588 251.197220,87.338982 256.885620,87.330383 
	C260.794281,87.324471 263.945618,88.542587 264.224701,92.968979 
	C264.490112,97.178169 262.208282,99.433632 257.291534,99.108749 
	C248.278687,98.285568 239.919205,97.918877 231.557175,97.624954 
	C231.393829,97.619217 231.200409,98.468452 231.021011,98.918793 
M232.919647,89.448868 
	C232.831573,89.310173 232.765869,89.146713 232.648392,89.040596 
	C232.553558,88.954941 232.396240,88.938492 232.266647,88.891335 
	C231.862717,90.682266 231.458786,92.473198 231.054855,94.264130 
	C231.609329,94.306381 232.163803,94.348633 232.718262,94.390877 
	C232.808899,92.979958 232.899521,91.569031 232.919647,89.448868 
z"/>
<path fill="#1F68B0" opacity="1.000000" stroke="none" 
	d="
M148.750641,77.892151 
	C147.805176,77.860207 146.859695,77.828270 145.320007,77.605072 
	C143.245728,75.414284 141.765686,73.414742 140.285645,71.415199 
	C140.474670,71.284317 140.534836,71.109055 140.629761,70.509293 
	C141.966690,67.339249 143.139969,64.549324 144.313248,61.759407 
	C150.647293,48.272625 156.981354,34.785843 163.645874,21.136391 
	C163.976349,20.973717 164.078491,21.112122 164.052979,21.414711 
	C164.016464,22.810471 164.005447,23.903639 163.994583,25.330589 
	C163.996078,26.109415 163.997421,26.554457 163.718933,27.209782 
	C160.613754,31.152248 162.502090,32.917171 165.805893,33.381969 
	C164.716003,35.901386 163.774033,38.078857 162.832062,40.256325 
	C163.228271,40.501328 163.624466,40.746330 164.020660,40.991333 
	C164.753265,40.507782 165.791687,40.192448 166.166031,39.511860 
	C167.879135,36.397270 169.406143,33.180332 171.000000,30.000076 
	C171.000000,30.000000 171.000000,30.000229 171.288513,29.859140 
	C172.049088,28.813805 172.521133,27.909557 172.996582,27.002661 
	C173.000000,27.000011 173.005157,26.993309 173.336899,26.995438 
	C174.110886,26.999559 174.553131,27.001554 175.127579,27.314823 
	C175.839966,29.416965 176.420151,31.207838 176.847412,33.351749 
	C176.459717,35.480732 176.224945,37.256672 175.990189,39.032616 
	C174.596451,37.317879 173.202698,35.603146 171.539703,33.557144 
	C164.782303,47.963848 158.390030,61.592091 151.590149,75.650787 
	C150.371902,76.684875 149.561279,77.288513 148.750641,77.892151 
z"/>
<path fill="#108ED2" opacity="1.000000" stroke="none" 
	d="
M319.110260,27.214712 
	C313.346558,35.830349 315.130463,42.213924 324.651672,46.051292 
	C328.934875,47.777592 333.449493,48.929695 337.723694,50.619850 
	C334.839111,51.318253 332.089996,51.739140 328.525940,52.284786 
	C330.246887,53.776623 331.021912,54.448456 331.874908,55.187878 
	C329.605347,56.706436 327.630157,58.028023 325.654968,59.349617 
	C306.739624,55.320213 300.344604,42.178078 304.872131,27.582617 
	C306.541565,22.200945 310.378387,17.982666 315.633423,15.349933 
	C316.314972,19.783276 314.553589,24.356577 319.110260,27.214712 
z"/>
<path fill="#0BA6E5" opacity="1.000000" stroke="none" 
	d="
M412.085693,75.577980 
	C411.137329,75.184921 410.140350,74.421349 407.943115,72.738525 
	C407.943115,80.922066 407.943115,88.210976 407.907349,95.985054 
	C403.837067,86.840981 399.809204,77.208946 395.762604,67.584785 
	C394.927582,65.598839 394.022705,63.642265 392.965210,60.991749 
	C391.717102,57.813618 390.653839,55.315895 389.590576,52.818169 
	C386.507111,50.896553 387.936981,47.772129 387.284424,44.564377 
	C388.349701,43.664310 389.673279,43.333706 390.997620,43.398876 
	C390.859589,45.938820 390.720825,48.082985 390.582062,50.227154 
	C391.260712,50.147873 391.939392,50.068592 392.618042,49.989311 
	C392.079559,47.658966 391.541107,45.328625 391.138062,42.715034 
	C392.233124,39.796135 393.192780,37.160480 394.152435,34.524834 
	C394.759399,35.008335 395.366394,35.491837 396.020416,36.658436 
	C396.501373,38.168346 396.935333,38.995159 397.369263,39.821976 
	C397.369263,39.821980 397.240997,39.844269 397.177124,40.203766 
	C396.742126,42.708893 396.371063,44.854523 395.716461,47.035309 
	C395.111298,47.374958 394.789703,47.679455 394.468079,47.983948 
	C394.677032,48.165001 394.885986,48.346050 395.094940,48.527100 
	C395.396637,48.018013 395.698303,47.508930 396.280945,46.981377 
	C397.275391,47.150192 397.987427,47.343163 398.702728,47.523144 
	C399.404358,47.699680 400.109344,47.863003 400.812836,48.032127 
	C404.554260,57.090576 408.295685,66.149017 412.085693,75.577980 
z"/>
<path fill="#1B73BC" opacity="1.000000" stroke="none" 
	d="
M196.085388,53.020699 
	C201.994263,65.569023 208.106888,78.029472 213.597443,90.758240 
	C214.443527,92.719734 213.244461,96.829498 211.555588,98.331314 
	C208.797058,100.784302 205.308533,99.717422 202.961731,96.600784 
	C202.272629,95.685616 201.832397,94.583023 201.038910,92.932037 
	C198.605606,87.723259 196.411499,83.148788 194.217392,78.574318 
	C193.842316,77.592705 193.467255,76.611099 193.438400,75.309708 
	C199.167511,72.310783 194.171982,67.970055 196.322586,64.648514 
	C194.391724,64.535469 193.338364,64.473793 191.915451,64.390480 
	C192.306671,63.123116 192.397598,61.565983 192.892212,61.424980 
	C197.038696,60.242928 196.418488,58.190575 194.588516,55.286255 
	C194.080933,54.480694 195.073364,52.729988 195.377625,51.412903 
	C195.377625,51.412903 195.410339,51.543079 195.360275,51.888733 
	C195.568604,52.496494 195.826996,52.758595 196.085388,53.020699 
z"/>
<path fill="#1A6FB8" opacity="1.000000" stroke="none" 
	d="
M195.310699,51.080078 
	C195.073364,52.729988 194.080933,54.480694 194.588516,55.286255 
	C196.418488,58.190575 197.038696,60.242928 192.892212,61.424980 
	C192.397598,61.565983 192.306671,63.123116 191.915451,64.390480 
	C193.338364,64.473793 194.391724,64.535469 196.322586,64.648514 
	C194.171982,67.970055 199.167511,72.310783 193.419952,74.994133 
	C192.650681,74.247047 192.246109,73.495750 191.987122,72.322922 
	C191.811737,71.602890 191.490768,71.304390 191.169800,71.005890 
	C186.537460,61.229893 181.905106,51.453892 177.563477,41.344276 
	C178.642426,41.200924 179.449203,41.335590 180.215820,41.590820 
	C184.063553,42.871845 185.407501,39.560772 186.158325,37.373695 
	C186.618683,36.032669 184.814087,32.868572 183.279160,32.173302 
	C181.645950,31.433514 179.130539,32.641296 177.000336,32.998711 
	C176.420151,31.207838 175.839966,29.416965 175.301376,27.061886 
	C178.840164,23.745972 178.205215,29.631191 181.276093,28.822414 
	C180.629517,27.415068 180.320190,25.723091 179.315033,24.749508 
	C176.564438,22.085308 177.312607,20.061327 179.964752,18.076843 
	C185.057755,28.966982 190.150757,39.857117 195.310699,51.080078 
z"/>
<path fill="#1387CD" opacity="1.000000" stroke="none" 
	d="
M287.813477,31.341534 
	C288.349548,38.705181 289.199921,46.129116 285.500946,53.003628 
	C284.523163,54.820858 283.024780,56.357983 281.196594,57.869278 
	C278.419006,57.810493 276.210297,57.906162 274.000793,58.000916 
	C274.000000,58.000000 273.998718,57.998840 273.833557,57.762482 
	C272.966766,56.230125 272.265106,54.934132 271.422668,53.378109 
	C270.081726,53.835991 268.899719,58.437794 266.982330,53.984642 
	C274.301147,50.598335 276.579376,44.573414 275.929810,36.132736 
	C275.976379,31.856430 276.579315,28.086292 271.536591,27.573357 
	C271.536591,27.573357 271.472015,27.462959 271.626282,27.099319 
	C271.854279,26.491102 271.927948,26.246523 272.372620,25.996513 
	C276.203979,23.747683 279.983490,23.311378 284.176788,24.074368 
	C284.390198,24.139051 284.829163,24.217787 284.829163,24.217787 
	C284.829163,24.217787 284.927063,24.117167 284.926636,24.485378 
	C285.888611,27.016235 286.851044,29.178883 287.813477,31.341534 
z"/>
<path fill="#1E58A6" opacity="1.000000" stroke="none" 
	d="
M112.938614,89.535355 
	C110.775192,89.504593 108.694237,89.011696 106.723190,88.544830 
	C106.723190,65.059692 106.723190,41.687710 106.723190,18.315729 
	C107.136093,18.165749 107.548988,18.015770 107.961891,17.865791 
	C108.590355,19.608908 109.069077,21.429134 109.910263,23.062714 
	C110.332817,23.883305 111.414566,24.364462 112.549866,25.000862 
	C112.941376,46.359474 112.981232,67.716339 112.938614,89.535355 
z"/>
<path fill="#137BC3" opacity="1.000000" stroke="none" 
	d="
M253.929581,22.705467 
	C247.891556,24.560493 242.528854,27.339645 240.065323,33.644638 
	C239.220276,35.807350 238.598129,38.121471 238.306335,40.421249 
	C237.847076,44.041111 236.033875,45.985264 232.415833,45.461288 
	C228.787048,44.935764 227.102570,42.497360 227.012466,38.813480 
	C226.754166,28.251537 231.893234,20.751287 240.876190,15.281052 
	C243.326050,15.288681 245.195099,14.983179 247.074921,14.885774 
	C248.711700,14.800961 250.360687,14.951086 251.665802,15.000078 
	C250.552155,15.335275 249.776993,15.667789 249.044159,16.313549 
	C249.616028,17.412865 250.145569,18.198935 250.623337,18.908152 
	C250.520340,19.003151 249.906036,19.569696 249.237579,20.186201 
	C251.059723,21.164562 252.494659,21.935015 253.929581,22.705467 
M236.798798,28.394064 
	C236.794571,28.786674 236.790344,29.179283 236.786118,29.571894 
	C236.949036,29.573433 237.253571,29.585909 237.254410,29.574930 
	C237.284576,29.184258 237.286331,28.791389 236.798798,28.394064 
z"/>
<path fill="#0D9ADD" opacity="1.000000" stroke="none" 
	d="
M344.186981,85.094765 
	C346.409668,83.063889 348.632385,81.033012 351.294678,78.438721 
	C351.087006,74.614716 350.439758,71.354126 350.078796,67.985992 
	C352.924103,66.387672 355.483093,64.896896 358.034790,63.410358 
	C357.547852,62.841019 356.579346,61.708633 355.280914,60.190514 
	C356.719208,60.024235 357.528290,59.930702 358.539917,59.876099 
	C358.972321,60.081203 359.228912,60.170048 359.512238,60.181561 
	C359.894653,60.653496 360.277069,61.125431 360.922302,62.042801 
	C361.432922,62.689327 361.680695,62.890423 361.938965,63.050041 
	C361.949432,63.008560 361.872925,63.046906 361.906860,63.347641 
	C362.285645,64.116478 362.630524,64.584587 363.019775,65.413589 
	C363.651245,67.378647 364.238403,68.982796 364.825531,70.586945 
	C365.015381,78.812073 363.573242,86.421616 356.257324,91.884605 
	C355.229919,92.378571 354.693481,92.988663 354.157043,93.598770 
	C354.085663,93.863976 353.916595,94.029320 353.022278,94.069244 
	C350.407501,93.935478 348.420380,93.827278 346.433258,93.719086 
	C346.422180,93.267281 346.411133,92.815468 346.400055,92.363663 
	C348.264832,91.911537 350.129639,91.459412 352.050232,91.144226 
	C352.192169,91.329567 352.278351,91.377983 352.364502,91.426392 
	C352.245361,91.282410 352.126221,91.138443 352.133331,90.690582 
	C351.914459,88.957344 351.569366,87.527985 350.923492,84.852921 
	C347.808716,89.843605 345.769043,88.920853 343.984070,85.620399 
	C344.044952,85.442657 344.186981,85.094765 344.186981,85.094765 
z"/>
<path fill="#1784C9" opacity="1.000000" stroke="none" 
	d="
M254.381683,22.738728 
	C252.494659,21.935015 251.059723,21.164562 249.237579,20.186201 
	C249.906036,19.569696 250.520340,19.003151 250.623337,18.908152 
	C250.145569,18.198935 249.616028,17.412865 249.470367,16.313625 
	C251.902985,16.000456 253.951691,16.000456 256.000397,16.000456 
	C256.017120,15.754606 256.033813,15.508757 256.050537,15.262906 
	C254.701782,15.174403 253.353027,15.085900 252.004272,14.997396 
	C250.360687,14.951086 248.711700,14.800961 247.074921,14.885774 
	C245.195099,14.983179 243.326050,15.288681 241.216064,15.218937 
	C254.323776,7.674598 267.034241,8.605898 279.572632,18.309681 
	C281.351776,20.494577 282.657593,22.252132 283.963379,24.009686 
	C279.983490,23.311378 276.203979,23.747683 272.371796,25.995514 
	C272.000000,25.999947 271.997559,25.998028 271.973816,25.727274 
	C271.588104,25.105076 271.226135,24.753632 270.864197,24.402187 
	C270.910858,24.932955 270.957520,25.463722 270.864716,26.146709 
	C270.725250,26.298931 270.469391,26.622931 270.469391,26.622932 
	C265.257507,25.339285 260.045654,24.055637 254.381683,22.738728 
z"/>
<path fill="#1090D4" opacity="1.000000" stroke="none" 
	d="
M323.009369,84.858665 
	C324.584106,85.390068 326.158813,85.921478 327.703003,86.715332 
	C327.300415,87.421425 326.544495,87.941994 326.615601,88.296822 
	C327.332367,91.873398 328.184601,95.422821 328.998749,98.979881 
	C320.160370,98.674232 312.579407,95.137924 306.516785,88.988022 
	C304.923889,87.372185 305.412872,83.704002 305.315002,80.525955 
	C306.117371,79.692123 306.550476,79.310638 306.983582,78.929153 
	C308.097260,78.658218 309.210907,78.387283 310.894196,78.173340 
	C311.988953,78.326920 312.514130,78.423515 313.039276,78.520111 
	C313.191345,78.632248 313.343384,78.744392 313.931091,79.193985 
	C315.553040,80.416458 316.739349,81.301498 318.110291,82.458961 
	C319.866394,83.440475 321.437866,84.149567 323.009369,84.858665 
z"/>
<path fill="#1482C8" opacity="1.000000" stroke="none" 
	d="
M274.001617,58.001831 
	C276.210297,57.906162 278.419006,57.810493 280.857422,57.959496 
	C280.390625,58.838425 279.694122,59.472687 278.423523,60.155144 
	C277.569794,60.441784 277.290100,60.680225 277.010437,60.918671 
	C272.579712,63.517647 268.149017,66.116623 263.298370,68.458618 
	C260.554626,68.885147 258.230774,69.568634 255.906952,70.252121 
	C255.906952,70.252129 255.838699,70.341553 255.783920,70.343147 
	C253.821365,70.344742 251.913574,70.344742 249.585464,70.344742 
	C249.975266,69.014366 250.308517,67.876984 250.661804,66.671242 
	C248.400894,65.489998 246.237534,64.359711 243.826874,62.931709 
	C243.579590,62.633999 243.639999,62.631165 244.013855,62.721985 
	C244.839584,62.403625 245.291458,61.994442 245.743317,61.585258 
	C245.743317,61.585258 245.914780,61.633934 246.141693,61.733864 
	C248.007126,62.272179 249.645630,62.710571 252.365250,63.438213 
	C251.184830,61.707260 250.548447,60.774075 249.912064,59.840889 
	C255.354767,57.929245 260.797485,56.017597 266.611267,54.045296 
	C268.899719,58.437794 270.081726,53.835991 271.422668,53.378109 
	C272.265106,54.934132 272.966766,56.230125 273.628448,57.884998 
	C273.603271,58.592880 273.618073,58.941887 273.632874,59.290894 
	C273.755798,58.861210 273.878723,58.431522 274.001617,58.001831 
M254.729431,65.904648 
	C254.231461,65.959381 253.733490,66.014114 253.235519,66.068840 
	C253.350067,66.514412 253.464615,66.959991 253.579163,67.405571 
	C254.004440,67.104057 254.429703,66.802544 254.729431,65.904648 
z"/>
<path fill="#1194D6" opacity="1.000000" stroke="none" 
	d="
M319.442993,27.076944 
	C314.553589,24.356577 316.314972,19.783276 316.003265,15.311607 
	C321.998840,13.301394 327.937195,11.383350 334.026581,10.425696 
	C335.873291,10.135277 338.137512,12.499710 340.421661,14.291407 
	C340.118866,16.963718 339.604919,18.992767 339.090942,21.021812 
	C336.589478,21.614664 334.041718,22.061115 331.597015,22.833618 
	C327.621155,24.089958 323.712646,25.559578 319.442993,27.076944 
z"/>
<path fill="#0E97DA" opacity="1.000000" stroke="none" 
	d="
M358.337341,59.837166 
	C357.528290,59.930702 356.719208,60.024235 355.280914,60.190514 
	C356.579346,61.708633 357.547852,62.841019 358.034790,63.410358 
	C355.483093,64.896896 352.924103,66.387672 349.805328,67.890656 
	C348.569580,67.574966 347.893585,67.247086 347.217621,66.919189 
	C343.648560,65.469360 340.079529,64.019524 336.329102,62.060005 
	C333.742859,56.052605 329.551208,58.665798 325.801849,59.271187 
	C325.801849,59.271187 325.737854,59.327461 325.696411,59.338535 
	C327.630157,58.028023 329.605347,56.706436 331.874908,55.187878 
	C331.021912,54.448456 330.246887,53.776623 328.525940,52.284786 
	C332.089996,51.739140 334.839111,51.318253 338.047058,50.829895 
	C343.020538,52.199448 347.535187,53.636475 352.548401,55.313736 
	C353.371246,55.672920 353.695526,55.791870 354.019806,55.910824 
	C354.019806,55.910824 354.034760,55.984303 354.210815,56.219959 
	C354.915466,56.653904 355.444000,56.852192 355.972565,57.050484 
	C356.382294,57.469349 356.792023,57.888218 357.547546,58.657406 
	C358.098175,59.253773 358.246185,59.530251 358.337341,59.837166 
M334.281403,55.078037 
	C335.587067,54.813950 336.892700,54.549862 338.198364,54.285774 
	C338.003174,53.752018 337.808014,53.218262 337.612823,52.684502 
	C336.468445,53.260162 335.324097,53.835819 334.281403,55.078037 
z"/>
<path fill="#0F96D9" opacity="1.000000" stroke="none" 
	d="
M329.374390,99.120140 
	C328.184601,95.422821 327.332367,91.873398 326.615601,88.296822 
	C326.544495,87.941994 327.300415,87.421425 328.010132,86.901215 
	C328.347809,86.824638 328.699097,86.753815 329.016602,87.111938 
	C330.213745,87.354683 331.093414,87.239296 331.973053,87.123901 
	C333.372620,87.088783 334.772156,87.053673 336.968964,86.952850 
	C339.818542,86.524132 341.870850,86.161140 343.923187,85.798141 
	C345.769043,88.920853 347.808716,89.843605 350.923492,84.852921 
	C351.569366,87.527985 351.914459,88.957344 352.129791,90.693344 
	C352.000000,91.000000 351.994415,91.007294 351.994415,91.007294 
	C350.129639,91.459412 348.264832,91.911537 346.400055,92.363663 
	C346.411133,92.815468 346.422180,93.267281 346.433258,93.719086 
	C348.420380,93.827278 350.407501,93.935478 352.837524,94.072762 
	C346.342682,99.952744 337.984222,99.323051 329.374390,99.120140 
M338.182312,97.265106 
	C338.026642,97.377861 337.870941,97.490623 337.715271,97.603394 
	C337.931610,97.580826 338.147980,97.558258 338.182312,97.265106 
z"/>
<path fill="#1C6CB6" opacity="1.000000" stroke="none" 
	d="
M179.931885,17.714447 
	C177.312607,20.061327 176.564438,22.085308 179.315033,24.749508 
	C180.320190,25.723091 180.629517,27.415068 181.276093,28.822414 
	C178.205215,29.631191 178.840164,23.745972 175.169174,26.750612 
	C174.553131,27.001554 174.110886,26.999559 173.280853,26.859282 
	C172.807480,26.672724 172.721924,26.624449 172.636353,26.576176 
	C172.755280,26.719221 172.874222,26.862267 172.993164,27.005310 
	C172.521133,27.909557 172.049088,28.813805 171.287109,29.474350 
	C168.914505,25.776731 166.831818,22.322811 164.749115,18.868887 
	C166.268341,16.424896 167.237701,13.118635 169.425690,11.723421 
	C173.492233,9.130301 175.701187,10.644545 179.931885,17.714447 
z"/>
<path fill="#13A2E0" opacity="1.000000" stroke="none" 
	d="
M377.000427,21.017948 
	C376.937683,20.713737 376.804993,20.443924 376.361908,19.754780 
	C375.786255,18.492514 375.450989,17.683973 375.115723,16.875433 
	C375.115723,16.875435 375.131531,16.968500 375.263428,16.651142 
	C375.502502,15.548862 375.609711,14.763943 375.716919,13.979023 
	C375.716919,13.979023 375.990356,13.587626 376.281189,13.169465 
	C377.521912,11.907412 378.471741,11.063519 379.421570,10.219622 
	C380.600952,10.183306 381.780304,10.146993 383.387268,10.418480 
	C387.917236,12.756632 389.102600,15.820718 386.895203,20.181835 
	C386.487183,20.649137 386.289581,20.947147 385.841492,21.314823 
	C385.007751,21.749971 384.424500,22.115454 383.841248,22.480934 
	C383.841248,22.480930 383.365570,22.560989 382.830536,22.666065 
	C380.530487,22.186745 378.765442,21.602348 377.000427,21.017948 
z"/>
<path fill="#139CDA" opacity="1.000000" stroke="none" 
	d="
M362.810883,21.350258 
	C362.810883,21.350260 362.884033,21.751848 363.065125,22.125034 
	C363.376770,22.818523 363.610260,23.018795 363.946747,23.099035 
	C363.946747,23.099035 363.979095,23.026281 363.934113,23.430485 
	C364.431061,27.732458 362.618896,30.155119 359.086151,31.499645 
	C358.591888,31.483206 358.097626,31.466764 356.951691,31.342731 
	C355.871735,31.195063 355.443451,31.154987 355.015167,31.114912 
	C354.274597,30.479433 353.534058,29.843954 352.447693,28.639553 
	C352.101807,26.065187 352.101746,24.059744 352.101685,22.054298 
	C354.458374,21.101849 356.815063,20.149403 359.765381,19.432281 
	C361.176300,20.228491 361.993591,20.789373 362.810883,21.350258 
z"/>
<path fill="#2263AD" opacity="1.000000" stroke="none" 
	d="
M134.486893,87.151306 
	C134.486893,87.151306 134.770340,87.251221 135.147705,87.177460 
	C135.679733,87.018883 135.834396,86.934074 135.989044,86.849266 
	C136.438339,86.883720 136.887650,86.918175 137.901642,87.057526 
	C138.645050,87.154259 138.823761,87.146111 139.002472,87.137962 
	C139.812210,87.697594 140.621964,88.257225 141.779510,89.306351 
	C144.014130,93.453339 142.819931,96.388939 139.984787,98.940056 
	C139.538834,98.996231 139.092896,99.052406 137.930481,99.160744 
	C136.138519,99.162926 135.063019,99.112961 133.987534,99.062996 
	C133.603271,98.710518 133.218994,98.358040 132.413818,97.577744 
	C129.849457,93.837509 130.606812,90.822441 132.934036,87.968285 
	C132.934036,87.968285 132.993744,87.996727 133.276794,87.917030 
	C133.868866,87.608658 134.177887,87.379982 134.486893,87.151306 
z"/>
<path fill="#1888CB" opacity="1.000000" stroke="none" 
	d="
M277.292511,89.090179 
	C277.814545,88.589218 278.336548,88.088257 279.048706,87.292740 
	C279.681274,86.883194 280.123718,86.768196 280.566132,86.653198 
	C281.043823,86.573181 281.521515,86.493172 282.364563,86.671631 
	C283.146942,86.966049 283.563995,87.001984 283.981049,87.037918 
	C283.981049,87.037918 283.991180,86.995743 284.181244,87.217377 
	C284.916748,87.613152 285.462158,87.787300 286.007599,87.961456 
	C286.226959,88.230721 286.446320,88.499977 286.981201,89.261826 
	C286.945862,91.841187 286.595001,93.927963 286.244141,96.014740 
	C284.726746,100.023811 281.665588,99.094551 278.225037,98.050339 
	C277.511047,97.500328 277.244171,97.281822 276.977295,97.063324 
	C276.683075,95.355766 276.388855,93.648224 276.321259,91.359787 
	C276.796082,90.215981 277.044281,89.653076 277.292511,89.090179 
z"/>
<path fill="#1C6CB6" opacity="1.000000" stroke="none" 
	d="
M176.847412,33.351749 
	C179.130539,32.641296 181.645950,31.433514 183.279160,32.173302 
	C184.814087,32.868572 186.618683,36.032669 186.158325,37.373695 
	C185.407501,39.560772 184.063553,42.871845 180.215820,41.590820 
	C179.449203,41.335590 178.642426,41.200924 177.474487,41.001064 
	C176.794983,40.525097 176.495148,40.058727 176.092743,39.312485 
	C176.224945,37.256672 176.459717,35.480732 176.847412,33.351749 
z"/>
<path fill="#12A4E2" opacity="1.000000" stroke="none" 
	d="
M393.935608,34.267853 
	C393.192780,37.160480 392.233124,39.796135 391.136719,42.715900 
	C391.000000,43.000015 390.996857,43.003098 390.996857,43.003098 
	C389.673279,43.333706 388.349701,43.664310 387.020325,44.297302 
	C385.112701,41.748768 383.466705,38.404125 386.384277,35.788090 
	C388.033997,34.308907 391.223053,34.546535 393.935608,34.267853 
z"/>
<path fill="#0379CB" opacity="1.000000" stroke="none" 
	d="
M231.197159,99.039993 
	C231.200409,98.468452 231.393829,97.619217 231.557175,97.624954 
	C239.919205,97.918877 248.278687,98.285568 256.903290,99.000641 
	C249.459503,99.460609 241.750839,99.564400 233.406677,99.453873 
	C232.443497,99.247986 232.115829,99.256416 231.788177,99.264847 
	C231.788177,99.264854 231.373306,99.161201 231.197159,99.039993 
z"/>
<path fill="#EDF7F8" opacity="1.000000" stroke="none" 
	d="
M346.863220,66.976913 
	C347.893585,67.247086 348.569580,67.574966 349.519043,67.998199 
	C350.439758,71.354126 351.087006,74.614716 351.467133,78.210388 
	C350.253113,76.395355 349.794281,73.297638 345.448090,76.537270 
	C345.843719,72.993164 346.176270,70.013901 346.863220,66.976913 
z"/>
<path fill="#EFF8F8" opacity="1.000000" stroke="none" 
	d="
M387.105621,20.012548 
	C389.102600,15.820718 387.917236,12.756632 383.742340,10.430687 
	C384.157654,10.032258 384.645630,9.840797 385.133209,9.841844 
	C387.305725,9.846504 389.478180,9.906199 391.650635,9.946005 
	C391.093018,11.874790 390.535370,13.803575 389.977753,15.732359 
	C389.356110,17.774014 394.446869,19.831535 389.280060,22.097622 
	C389.000000,22.000000 389.000000,22.000153 388.962585,21.688711 
	C388.318634,20.922363 387.712128,20.467459 387.105621,20.012548 
z"/>
<path fill="#EFF6F7" opacity="1.000000" stroke="none" 
	d="
M194.062042,78.930130 
	C196.411499,83.148788 198.605606,87.723259 200.829971,92.654274 
	C198.798813,91.506424 196.737381,90.002029 194.498764,88.368324 
	C194.427322,88.547173 193.958252,89.721458 193.489197,90.895737 
	C193.304062,90.882973 193.118927,90.870209 192.933792,90.857437 
	C193.258087,87.000275 193.582382,83.143112 194.062042,78.930130 
z"/>
<path fill="#1867AF" opacity="1.000000" stroke="none" 
	d="
M164.518311,19.039692 
	C166.831818,22.322811 168.914505,25.776731 170.998596,29.615440 
	C171.000000,30.000229 171.000000,30.000000 170.644714,29.995087 
	C168.411346,29.990175 166.533279,29.990175 164.673645,29.990175 
	C164.497162,29.208105 164.247971,28.103802 163.998779,26.999498 
	C163.997421,26.554457 163.996078,26.109415 164.281586,25.299902 
	C164.405106,23.660995 164.241791,22.386559 164.078491,21.112122 
	C164.078491,21.112122 163.976349,20.973717 163.914368,20.914083 
	C163.997421,20.306463 164.142471,19.758476 164.518311,19.039692 
z"/>
<path fill="#F0F8FA" opacity="1.000000" stroke="none" 
	d="
M359.327332,31.764740 
	C362.618896,30.155119 364.431061,27.732458 363.894897,23.437332 
	C365.316620,26.036631 366.732574,29.033283 368.822144,33.455528 
	C364.741272,32.826794 362.154877,32.428314 359.327332,31.764740 
z"/>
<path fill="#1E58A6" opacity="1.000000" stroke="none" 
	d="
M108.578751,102.998611 
	C108.141106,101.480782 108.008301,99.833923 107.797379,97.218292 
	C107.891960,97.294617 106.631775,96.764778 106.338188,95.904915 
	C106.039742,95.030815 106.487244,93.707672 107.015411,92.824860 
	C107.293968,92.359238 108.810265,92.020874 109.120552,92.312843 
	C109.804375,92.956284 110.184410,94.001831 110.487274,94.947693 
	C110.767792,95.823738 110.786606,96.783577 111.070145,98.039444 
	C110.440956,99.871437 109.662277,101.370506 108.578751,102.998611 
z"/>
<path fill="#F0F6F8" opacity="1.000000" stroke="none" 
	d="
M140.027527,99.242386 
	C142.819931,96.388939 144.014130,93.453339 142.053589,89.419510 
	C142.419006,88.223511 142.858109,87.403847 143.297226,86.584183 
	C143.720551,86.864983 144.143860,87.145790 144.567169,87.426590 
	C144.567169,91.212395 144.567169,94.998192 144.567169,99.293884 
	C143.286469,99.365318 141.678375,99.455017 140.027527,99.242386 
z"/>
<path fill="#F0F6F8" opacity="1.000000" stroke="none" 
	d="
M140.159897,71.657990 
	C141.765686,73.414742 143.245728,75.414284 144.968719,77.660637 
	C144.122726,78.704536 143.033768,79.501617 141.656998,80.509369 
	C140.426285,78.597099 138.957901,76.542114 137.729996,74.352295 
	C136.062973,71.379295 138.534744,72.040024 140.159897,71.657990 
z"/>
<path fill="#EFFAF6" opacity="1.000000" stroke="none" 
	d="
M339.441986,21.024267 
	C339.604919,18.992767 340.118866,16.963718 340.619751,14.570105 
	C341.806519,13.778616 343.006409,13.351692 344.206268,12.924768 
	C344.144592,14.106044 344.233643,15.320236 343.984589,16.460596 
	C343.643982,18.020311 343.046265,19.523886 342.506226,21.216219 
	C341.685089,21.158869 340.739044,21.092793 339.441986,21.024267 
z"/>
<path fill="#EEF8F8" opacity="1.000000" stroke="none" 
	d="
M389.245300,52.969135 
	C390.653839,55.315895 391.717102,57.813618 392.801758,60.663857 
	C391.870026,61.217720 390.916931,61.419067 389.418823,61.735546 
	C390.317352,58.679794 385.203003,56.450130 389.245300,52.969135 
z"/>
<path fill="#EEF8F7" opacity="1.000000" stroke="none" 
	d="
M284.176788,24.074368 
	C282.657593,22.252132 281.351776,20.494577 279.877197,18.448061 
	C282.033691,17.641703 284.358978,17.124310 286.819153,16.576891 
	C286.083496,19.262413 285.514893,21.338173 284.887695,23.815861 
	C284.829163,24.217787 284.390198,24.139051 284.176788,24.074368 
z"/>
<path fill="#F0F6F8" opacity="1.000000" stroke="none" 
	d="
M144.234558,61.404423 
	C143.139969,64.549324 141.966690,67.339249 140.534271,70.396622 
	C140.536392,67.677925 140.688965,64.673218 141.191513,61.728241 
	C141.257004,61.344524 143.123535,61.268162 144.234558,61.404423 
z"/>
<path fill="#108ED2" opacity="1.000000" stroke="none" 
	d="
M326.032532,59.554710 
	C329.551208,58.665798 333.742859,56.052605 336.044250,61.845955 
	C332.714874,61.373806 329.489044,60.606018 326.032532,59.554710 
z"/>
<path fill="#12A4E2" opacity="1.000000" stroke="none" 
	d="
M400.821869,47.673656 
	C400.109344,47.863003 399.404358,47.699680 398.702728,47.523144 
	C397.987427,47.343163 397.275391,47.150192 396.280945,46.981453 
	C396.000000,47.000000 396.000000,47.000153 396.000000,47.000153 
	C396.371063,44.854523 396.742126,42.708893 397.209259,40.147171 
	C398.480499,42.259117 399.655701,44.787155 400.821869,47.673656 
z"/>
<path fill="#F0F8FA" opacity="1.000000" stroke="none" 
	d="
M376.961426,21.352139 
	C378.765442,21.602348 380.530487,22.186745 382.644653,22.819759 
	C380.473969,23.859310 377.954132,24.850245 375.434296,25.841177 
	C375.277008,25.479319 375.119720,25.117460 374.962433,24.755602 
	C375.615753,23.732510 376.269104,22.709417 376.961426,21.352139 
z"/>
<path fill="#F0F6F8" opacity="1.000000" stroke="none" 
	d="
M132.566650,87.971512 
	C130.606812,90.822441 129.849457,93.837509 132.159607,97.509888 
	C127.703133,96.444664 130.189911,92.492432 129.581039,89.682892 
	C129.502335,89.319702 131.280975,88.553986 132.566650,87.971512 
z"/>
<path fill="#EEF7F9" opacity="1.000000" stroke="none" 
	d="
M351.813599,21.861755 
	C352.101746,24.059744 352.101807,26.065187 352.192810,28.495073 
	C350.936157,26.630634 349.536896,24.369162 348.293762,22.024904 
	C348.095337,21.650656 348.596863,20.905214 348.774780,20.331388 
	C349.691681,20.777332 350.608612,21.223270 351.813599,21.861755 
z"/>
<path fill="#F3FAF9" opacity="1.000000" stroke="none" 
	d="
M364.893677,70.169746 
	C364.238403,68.982796 363.651245,67.378647 363.008606,65.101227 
	C362.593048,63.967606 362.232971,63.507256 361.872925,63.046906 
	C361.872925,63.046906 361.949432,63.008560 361.970337,62.776741 
	C361.997375,62.362190 362.003479,62.179459 362.009583,61.996727 
	C367.354370,62.922123 365.693146,66.514313 364.893677,70.169746 
z"/>
<path fill="#1784C9" opacity="1.000000" stroke="none" 
	d="
M271.666046,27.879280 
	C276.579315,28.086292 275.976379,31.856430 275.964172,35.702267 
	C274.563629,33.480606 273.179565,30.832905 271.666046,27.879280 
z"/>
<path fill="#F2F9F9" opacity="1.000000" stroke="none" 
	d="
M286.628235,95.996063 
	C286.595001,93.927963 286.945862,91.841187 287.235626,89.341011 
	C289.863831,90.488152 289.796082,93.433258 286.628235,95.996063 
z"/>
<path fill="#EEF8F7" opacity="1.000000" stroke="none" 
	d="
M287.964966,31.003336 
	C286.851044,29.178883 285.888611,27.016235 284.859131,24.504732 
	C289.084503,24.699390 288.612335,27.676220 287.964966,31.003336 
z"/>
<path fill="#EDF8F9" opacity="1.000000" stroke="none" 
	d="
M323.000336,84.495659 
	C321.437866,84.149567 319.866394,83.440475 318.132446,82.166977 
	C317.978760,81.407562 317.987549,81.212555 317.996338,81.017548 
	C319.661316,82.055923 321.326294,83.094284 323.000336,84.495659 
z"/>
<path fill="#EDF8F9" opacity="1.000000" stroke="none" 
	d="
M343.984070,85.620399 
	C341.870850,86.161140 339.818542,86.524132 337.374268,86.839287 
	C336.886322,86.002075 336.790314,85.212708 336.670776,84.229988 
	C339.000397,84.503433 341.181030,84.759399 343.774353,85.055061 
	C344.186981,85.094765 344.044952,85.442657 343.984070,85.620399 
z"/>
<path fill="#F0F8FA" opacity="1.000000" stroke="none" 
	d="
M362.971069,20.994600 
	C361.993591,20.789373 361.176300,20.228491 360.151245,19.453991 
	C360.954620,18.577541 361.965698,17.914711 362.976807,17.251881 
	C363.028290,18.380901 363.079773,19.509922 362.971069,20.994600 
z"/>
<path fill="#EFF8F8" opacity="1.000000" stroke="none" 
	d="
M383.953369,22.759838 
	C384.424500,22.115454 385.007751,21.749971 386.066833,21.529636 
	C387.361786,21.783239 388.180908,21.891695 389.000000,22.000153 
	C389.000000,22.000153 389.000000,22.000000 389.000000,21.999924 
	C388.587341,28.198668 385.762512,22.940311 383.953369,22.759838 
z"/>
<path fill="#187EC4" opacity="1.000000" stroke="none" 
	d="
M249.575317,59.854538 
	C250.548447,60.774075 251.184830,61.707260 252.365250,63.438213 
	C249.645630,62.710571 248.007126,62.272179 246.052856,61.740852 
	C246.904251,61.054676 248.071396,60.461433 249.575317,59.854538 
z"/>
<path fill="#E8F7F8" opacity="1.000000" stroke="none" 
	d="
M358.539917,59.876099 
	C358.246185,59.530251 358.098175,59.253773 357.816315,58.784565 
	C358.786530,58.254089 359.833710,57.946777 360.880920,57.639458 
	C360.663635,58.439915 360.446381,59.240379 359.870667,60.111202 
	C359.228912,60.170048 358.972321,60.081203 358.539917,59.876099 
z"/>
<path fill="#187EC4" opacity="1.000000" stroke="none" 
	d="
M256.325928,70.226982 
	C258.230774,69.568634 260.554626,68.885147 262.939453,68.517281 
	C260.915283,69.289223 258.830078,69.745529 256.325928,70.226982 
z"/>
<path fill="#F0F8FA" opacity="1.000000" stroke="none" 
	d="
M375.345764,13.984659 
	C375.609711,14.763943 375.502502,15.548862 375.292725,16.614136 
	C374.200012,16.383688 373.209930,15.872887 372.219818,15.362085 
	C373.138062,14.904821 374.056335,14.447558 375.345764,13.984659 
z"/>
<path fill="#EDF6F9" opacity="1.000000" stroke="none" 
	d="
M317.989441,80.660561 
	C317.987549,81.212555 317.978760,81.407562 317.947815,81.894554 
	C316.739349,81.301498 315.553040,80.416458 314.208496,79.252106 
	C315.742065,78.290382 317.688507,76.855637 317.989441,80.660561 
z"/>
<path fill="#0BA6E5" opacity="1.000000" stroke="none" 
	d="
M414.641785,72.917572 
	C414.494202,74.698074 414.081512,76.658394 413.668854,78.618713 
	C413.327362,78.606499 412.985870,78.594284 412.644379,78.582077 
	C412.444305,77.910416 412.244263,77.238754 412.066437,76.204926 
	C412.851349,74.927620 413.614014,74.012505 414.641785,72.917572 
z"/>
<path fill="#E8F7F8" opacity="1.000000" stroke="none" 
	d="
M352.913330,52.425709 
	C352.048676,52.296947 351.473694,52.090641 349.686493,51.449398 
	C352.239563,50.873379 353.631195,50.559402 355.022797,50.245430 
	C355.146423,50.632446 355.270020,51.019463 355.393646,51.406479 
	C354.663422,51.720375 353.933228,52.034271 352.913330,52.425709 
z"/>
<path fill="#F0F8FA" opacity="1.000000" stroke="none" 
	d="
M379.087646,10.071449 
	C378.471741,11.063519 377.521912,11.907412 376.309998,12.932481 
	C375.932556,11.965355 375.817139,10.817052 375.651367,9.168023 
	C376.763245,9.438703 377.758453,9.680988 379.087646,10.071449 
z"/>
<path fill="#F0F6F8" opacity="1.000000" stroke="none" 
	d="
M149.110992,77.955414 
	C149.561279,77.288513 150.371902,76.684875 151.473969,75.992912 
	C152.039307,76.688705 152.313217,77.472816 152.587143,78.256935 
	C151.548538,78.177513 150.509949,78.098083 149.110992,77.955414 
z"/>
<path fill="#F2F9F9" opacity="1.000000" stroke="none" 
	d="
M273.311981,93.392395 
	C273.389893,92.568214 273.598816,92.028938 273.807709,91.489655 
	C274.186584,92.061882 274.565460,92.634102 274.944336,93.206322 
	C274.443878,93.363312 273.943451,93.520302 273.311981,93.392395 
z"/>
<path fill="#EFFAF6" opacity="1.000000" stroke="none" 
	d="
M344.363281,24.123220 
	C345.072845,24.692608 345.750549,25.572510 346.428284,26.452412 
	C346.104919,26.644039 345.781555,26.835667 345.458191,27.027294 
	C345.082611,26.162775 344.707031,25.298254 344.363281,24.123220 
z"/>
<path fill="#F0F6F8" opacity="1.000000" stroke="none" 
	d="
M134.174805,99.307251 
	C135.063019,99.112961 136.138519,99.162926 137.612946,99.274818 
	C136.795288,99.408333 135.578674,99.479919 134.174805,99.307251 
z"/>
<path fill="#EDF6F9" opacity="1.000000" stroke="none" 
	d="
M313.034912,78.211594 
	C312.514130,78.423515 311.988953,78.326920 311.230499,78.092621 
	C311.349762,77.144897 311.702362,76.334877 312.545258,74.398369 
	C312.821930,76.396286 312.926239,77.149681 313.034912,78.211594 
z"/>
<path fill="#F0F8FA" opacity="1.000000" stroke="none" 
	d="
M367.644348,24.445004 
	C368.292755,24.312891 368.745117,24.372244 369.197479,24.431599 
	C368.998810,24.804449 368.800140,25.177298 368.601471,25.550148 
	C368.217072,25.245588 367.832703,24.941029 367.644348,24.445004 
z"/>
<path fill="#F3FAF9" opacity="1.000000" stroke="none" 
	d="
M367.725677,62.000359 
	C367.573273,61.375435 367.619995,60.943577 367.666718,60.511723 
	C368.040314,60.688358 368.413910,60.864990 368.787506,61.041618 
	C368.499939,61.425549 368.212372,61.809486 367.725677,62.000359 
z"/>
<path fill="#1090D4" opacity="1.000000" stroke="none" 
	d="
M331.733459,87.032074 
	C331.093414,87.239296 330.213745,87.354683 329.159210,87.220390 
	C329.820831,86.960548 330.657349,86.950394 331.733459,87.032074 
z"/>
<path fill="#F2F9F9" opacity="1.000000" stroke="none" 
	d="
M280.735626,86.248260 
	C280.123718,86.768196 279.681274,86.883194 279.071777,87.012901 
	C279.019928,86.352966 279.135223,85.678322 279.250519,85.003685 
	C279.802063,85.283562 280.353577,85.563438 280.735626,86.248260 
z"/>
<path fill="#26509E" opacity="1.000000" stroke="none" 
	d="
M98.633102,111.352448 
	C99.022163,110.916924 99.726028,110.451012 100.745499,110.016388 
	C100.356705,110.472458 99.652306,110.897263 98.633102,111.352448 
z"/>
<path fill="#EEF7F9" opacity="1.000000" stroke="none" 
	d="
M349.002594,29.001755 
	C348.699921,29.509151 348.397247,30.016550 348.094574,30.523949 
	C347.886261,30.343676 347.677979,30.163406 347.469666,29.983133 
	C347.790497,29.679371 348.111359,29.375608 348.716125,29.035919 
	C349.000000,28.999992 349.002594,29.001755 349.002594,29.001755 
z"/>
<path fill="#F0F8FA" opacity="1.000000" stroke="none" 
	d="
M375.000000,19.999640 
	C374.698151,20.507820 374.396301,21.016003 374.094452,21.524189 
	C373.885895,21.343584 373.677368,21.162979 373.468811,20.982370 
	C373.790466,20.679108 374.112122,20.375853 374.716919,20.036297 
	C375.000000,20.000000 375.000000,19.999641 375.000000,19.999640 
z"/>
<path fill="#EDF6F9" opacity="1.000000" stroke="none" 
	d="
M306.785400,78.710205 
	C306.550476,79.310638 306.117371,79.692123 305.408997,80.171234 
	C305.618256,79.676331 306.102722,79.083794 306.785400,78.710205 
z"/>
<path fill="#EDF8F9" opacity="1.000000" stroke="none" 
	d="
M330.276947,84.125076 
	C330.747742,84.223953 330.994781,84.362297 331.241821,84.500641 
	C330.995056,84.638496 330.688263,84.937325 330.516785,84.873360 
	C330.303772,84.793877 330.202667,84.414421 330.276947,84.125076 
z"/>
<path fill="#12A4E2" opacity="1.000000" stroke="none" 
	d="
M397.323792,39.466850 
	C396.935333,38.995159 396.501373,38.168346 396.104248,36.943527 
	C396.520111,37.400925 396.899170,38.256332 397.323792,39.466850 
z"/>
<path fill="#0F96D9" opacity="1.000000" stroke="none" 
	d="
M354.456116,93.517029 
	C354.693481,92.988663 355.229919,92.378571 355.935333,91.999878 
	C355.654572,92.632607 355.204865,93.033943 354.456116,93.517029 
z"/>
<path fill="#F3FAF9" opacity="1.000000" stroke="none" 
	d="
M368.360107,65.897873 
	C368.635284,66.168617 368.748535,66.570648 368.805054,66.980507 
	C368.814789,67.050911 368.583099,67.154625 368.462952,67.242958 
	C368.368286,66.839249 368.273651,66.435532 368.360107,65.897873 
z"/>
<path fill="#F0F8FA" opacity="1.000000" stroke="none" 
	d="
M375.069183,17.264744 
	C375.450989,17.683973 375.786255,18.492514 376.168121,19.635403 
	C376.012390,19.978485 375.809998,19.987217 375.303833,19.997795 
	C375.000000,19.999641 375.000000,20.000000 375.000000,20.000191 
	C375.007568,19.218273 375.015106,18.436165 375.069183,17.264744 
z"/>
<path fill="#EEF7F9" opacity="1.000000" stroke="none" 
	d="
M348.998657,28.998581 
	C349.119598,28.569012 349.241882,28.140854 349.364136,27.712696 
	C349.378601,28.059483 349.393036,28.406267 349.205048,28.877403 
	C349.002594,29.001755 349.000000,28.999992 348.998657,28.998581 
z"/>
<path fill="#F0F8FA" opacity="1.000000" stroke="none" 
	d="
M370.358765,10.253510 
	C370.373505,10.007874 370.505035,9.874107 370.636536,9.740350 
	C370.582916,9.948699 370.529266,10.157040 370.358765,10.253510 
z"/>
<path fill="#F2F9F9" opacity="1.000000" stroke="none" 
	d="
M285.834351,87.716286 
	C285.462158,87.787300 284.916748,87.613152 284.167206,87.234673 
	C284.529114,87.177269 285.095093,87.324188 285.834351,87.716286 
z"/>
<path fill="#F0F8FA" opacity="1.000000" stroke="none" 
	d="
M355.132996,31.311123 
	C355.443451,31.154987 355.871735,31.195063 356.583740,31.392471 
	C356.328552,31.535648 355.789673,31.521490 355.132996,31.311123 
z"/>
<path fill="#F2F9F9" opacity="1.000000" stroke="none" 
	d="
M276.981781,89.216721 
	C277.044281,89.653076 276.796082,90.215981 276.310455,90.979431 
	C276.272369,90.567734 276.471710,89.955498 276.981781,89.216721 
z"/>
<path fill="#F2F9F9" opacity="1.000000" stroke="none" 
	d="
M276.981506,97.280724 
	C277.244171,97.281822 277.511047,97.500328 277.848938,97.974228 
	C277.608521,97.985779 277.297119,97.741951 276.981506,97.280724 
z"/>
<path fill="#1B73BC" opacity="1.000000" stroke="none" 
	d="
M191.168243,71.231171 
	C191.490768,71.304390 191.811737,71.602890 191.932953,72.006195 
	C191.417694,72.002434 191.228851,71.784241 191.168243,71.231171 
z"/>
<path fill="#E8F7F8" opacity="1.000000" stroke="none" 
	d="
M355.831390,56.796684 
	C355.444000,56.852192 354.915466,56.653904 354.245209,56.204994 
	C354.632416,56.150539 355.161316,56.346714 355.831390,56.796684 
z"/>
<path fill="#187EC4" opacity="1.000000" stroke="none" 
	d="
M245.442566,61.618599 
	C245.291458,61.994442 244.839584,62.403625 244.044098,62.722023 
	C244.180923,62.304806 244.661377,61.978374 245.442566,61.618599 
z"/>
<path fill="#F0F6F8" opacity="1.000000" stroke="none" 
	d="
M134.185410,87.168312 
	C134.177887,87.379982 133.868866,87.608658 133.270325,87.884598 
	C133.281830,87.683022 133.582870,87.434166 134.185410,87.168312 
z"/>
<path fill="#1A6FB8" opacity="1.000000" stroke="none" 
	d="
M196.069031,52.740303 
	C195.826996,52.758595 195.568604,52.496494 195.327271,51.947174 
	C195.580460,51.926605 195.816574,52.193256 196.069031,52.740303 
z"/>
<path fill="#F0F8FA" opacity="1.000000" stroke="none" 
	d="
M363.895386,22.873508 
	C363.610260,23.018795 363.376770,22.818523 363.216064,22.262444 
	C363.487000,22.147196 363.706390,22.354301 363.895386,22.873508 
z"/>
<path fill="#6CAAD7" opacity="1.000000" stroke="none" 
	d="
M231.955872,99.473938 
	C232.115829,99.256416 232.443497,99.247986 232.947479,99.424774 
	C232.790390,99.634331 232.456985,99.658684 231.955872,99.473938 
z"/>
<path fill="#E8F7F8" opacity="1.000000" stroke="none" 
	d="
M353.874329,55.691536 
	C353.695526,55.791870 353.371246,55.672920 352.909119,55.322929 
	C353.090454,55.218674 353.409637,55.345459 353.874329,55.691536 
z"/>
<path fill="#1387CD" opacity="1.000000" stroke="none" 
	d="
M277.311462,60.952705 
	C277.290100,60.680225 277.569794,60.441784 278.128967,60.164860 
	C278.143188,60.413166 277.877838,60.699955 277.311462,60.952705 
z"/>
<path fill="#E8F7F8" opacity="1.000000" stroke="none" 
	d="
M361.790955,61.991600 
	C362.003479,62.179459 361.997375,62.362190 361.959869,62.818222 
	C361.680695,62.890423 361.432922,62.689327 361.160034,62.236183 
	C361.134918,61.984138 361.572327,61.986477 361.790955,61.991600 
z"/>
<path fill="#F0F6F8" opacity="1.000000" stroke="none" 
	d="
M137.531281,64.548096 
	C137.477966,64.579559 137.584595,64.516632 137.531281,64.548096 
z"/>
<path fill="#1784C9" opacity="1.000000" stroke="none" 
	d="
M272.000824,26.000946 
	C271.927948,26.246523 271.854279,26.491102 271.574097,27.062408 
	C271.085144,27.339186 270.856873,27.200230 270.576080,26.797596 
	C270.469391,26.622931 270.725250,26.298931 271.113037,26.148773 
	C271.500793,25.998613 271.997559,25.998028 271.997559,25.998028 
	C271.997559,25.998028 272.000000,25.999947 272.000824,26.000946 
z"/>
<path fill="#F2F9F9" opacity="1.000000" stroke="none" 
	d="
M278.550476,82.467461 
	C278.583832,82.523178 278.517151,82.411743 278.550476,82.467461 
z"/>
<path fill="#F2F9F9" opacity="1.000000" stroke="none" 
	d="
M274.468353,85.450150 
	C274.523621,85.417259 274.413086,85.483032 274.468353,85.450150 
z"/>
<path fill="#F0F6F8" opacity="1.000000" stroke="none" 
	d="
M135.875397,86.702911 
	C135.834396,86.934074 135.679733,87.018883 135.261597,87.079437 
	C135.252670,86.888969 135.507217,86.722763 135.875397,86.702911 
z"/>
<path fill="#F0F6F8" opacity="1.000000" stroke="none" 
	d="
M138.946182,86.951660 
	C138.823761,87.146111 138.645050,87.154259 138.238144,87.021240 
	C138.303268,86.841827 138.596573,86.803589 138.946182,86.951660 
z"/>
<path fill="#F2F9F9" opacity="1.000000" stroke="none" 
	d="
M283.811035,86.779694 
	C283.563995,87.001984 283.146942,86.966049 282.605530,86.647736 
	C282.867767,86.417389 283.254395,86.469429 283.811035,86.779694 
z"/>
<path fill="#FBFCFD" opacity="1.000000" stroke="none" 
	d="
M60.965305,95.610031 
	C59.478535,96.032623 58.308186,96.246460 56.870918,96.284088 
	C56.604004,96.107872 56.588127,96.084595 56.473526,95.781563 
	C55.938881,93.983521 55.518833,92.488503 55.141304,90.658821 
	C54.512394,89.861565 53.840961,89.398972 53.125954,88.547516 
	C52.811779,86.426537 52.541187,84.694412 52.244984,82.573982 
	C50.331722,78.528824 49.361099,74.998726 51.509140,70.879768 
	C52.218403,69.519714 51.177780,67.037109 50.517803,65.220131 
	C49.411865,62.175373 47.969357,59.252861 46.239128,55.297333 
	C43.396362,53.447937 39.278484,53.160221 35.071301,55.709076 
	C34.588123,56.001804 33.766449,55.735806 32.858727,55.470215 
	C26.570478,54.281979 23.900463,49.518307 21.015102,44.999252 
	C21.431812,43.268402 21.715569,41.491604 22.294430,39.816795 
	C23.325266,36.834305 24.312464,33.800148 25.739822,31.002890 
	C26.875191,28.777851 28.639643,26.873817 30.605139,24.364433 
	C34.410034,22.642151 37.734596,21.382710 41.508194,20.143051 
	C44.385670,20.162836 46.814114,20.162836 49.242561,20.162836 
	C48.984165,20.486883 48.725773,20.810928 48.467377,21.134975 
	C50.815472,23.269045 53.163563,25.403114 55.511658,27.537182 
	C55.692467,27.076992 55.873276,26.616802 56.054081,26.156612 
	C59.044662,26.156612 62.035240,26.156612 65.365120,26.382214 
	C68.064796,26.765028 70.425179,26.922245 71.988174,27.026350 
	C73.099472,30.511747 73.992706,33.313221 74.911705,36.088490 
	C74.937477,36.062283 74.866676,36.043671 74.934937,36.347908 
	C75.298531,36.935986 75.593864,37.219833 75.863220,37.832672 
	C76.580215,39.446552 77.323189,40.731438 78.023354,42.377144 
	C80.103081,47.595760 84.636276,48.011078 89.489510,48.226830 
	C87.813789,51.544506 86.433022,54.278214 84.735611,57.087227 
	C83.501503,58.067127 82.584045,58.971725 81.465042,59.925182 
	C81.000954,60.126213 80.861679,60.353809 80.562363,60.814865 
	C79.478973,61.989693 78.678909,63.006485 77.624771,64.279510 
	C77.709694,65.987389 78.048691,67.439041 78.641785,69.171295 
	C78.895691,70.960037 78.895500,72.468170 78.586052,73.829514 
	C77.139320,73.185524 76.001839,72.688316 73.860138,71.752159 
	C73.661240,75.344070 73.499557,78.263939 73.482269,81.270378 
	C73.626663,81.356941 73.573616,81.689438 73.382126,81.537628 
	C73.043526,81.439568 72.896431,81.493324 72.749329,81.547081 
	C73.036125,81.617065 73.322914,81.687042 73.753372,82.023224 
	C73.867661,82.488960 73.838287,82.688477 73.443436,82.983871 
	C72.712265,83.699104 72.346581,84.318451 71.821411,85.254364 
	C70.993149,87.326057 70.324387,89.081177 69.655624,90.836288 
	C66.864319,92.357956 64.073021,93.879616 60.965305,95.610031 
z"/>
<path fill="#2C4091" opacity="1.000000" stroke="none" 
	d="
M20.699726,44.977798 
	C23.900463,49.518307 26.570478,54.281979 32.829853,55.956379 
	C33.043976,74.196831 33.043976,91.692474 33.043976,109.789200 
	C34.128704,109.839424 35.933098,109.698013 37.620602,110.077026 
	C38.826023,110.347755 39.874565,111.316986 40.993107,111.974533 
	C33.974037,111.977669 26.954969,111.980797 19.467117,111.987320 
	C17.864065,111.652931 16.729797,111.315140 15.256087,111.022263 
	C14.916644,111.067184 14.962317,111.025177 14.810418,110.789856 
	C14.082692,110.383858 13.506865,110.213181 12.931037,110.042511 
	C12.931037,110.042511 12.961773,110.019226 12.958935,110.038734 
	C18.136215,106.910805 16.965267,101.766571 16.984896,97.043633 
	C17.031895,85.735275 16.920029,74.425690 17.048275,63.118599 
	C17.087427,59.666801 17.579317,56.201740 18.141228,52.788414 
	C18.267086,52.023895 19.557121,51.451027 19.959089,51.098618 
	C19.192060,49.418995 18.390141,47.662971 17.588223,45.906944 
	C18.520264,45.590076 19.452305,45.273212 20.699726,44.977798 
z"/>
<path fill="#2B4393" opacity="1.000000" stroke="none" 
	d="
M41.059162,20.123266 
	C37.734596,21.382710 34.410034,22.642151 30.745136,24.026997 
	C28.104458,25.049156 26.574841,24.587103 26.252562,21.860790 
	C25.852417,18.475782 25.581282,15.061550 24.910473,11.729177 
	C24.630087,10.336295 23.464743,9.121555 22.615730,7.679718 
	C23.124403,7.288130 23.849997,6.729552 24.921354,5.904797 
	C23.463604,4.956367 22.218626,4.146369 21.601320,3.744743 
	C25.014641,3.455069 28.918610,3.123755 32.907120,2.410232 
	C40.346672,2.022531 47.701675,2.017040 55.444523,2.395372 
	C45.436928,3.900476 44.958656,13.468922 41.059162,20.123266 
z"/>
<path fill="#29549E" opacity="1.000000" stroke="none" 
	d="
M81.666588,59.876320 
	C82.584045,58.971725 83.501503,58.067127 84.972984,57.084141 
	C85.527016,57.005753 86.001854,57.015839 86.001854,57.015839 
	C89.783775,61.584133 88.756371,67.079208 88.712265,72.601791 
	C85.965446,72.439590 82.702812,75.552422 81.783379,79.245064 
	C81.187378,79.907524 80.294960,80.476372 80.050659,81.249916 
	C79.301048,83.623466 78.927917,85.953415 75.676865,86.477753 
	C74.676079,86.639168 74.123016,88.849159 73.098885,89.848427 
	C72.414116,90.516571 71.259605,90.703285 69.985458,90.970863 
	C70.324387,89.081177 70.993149,87.326057 72.088318,85.232773 
	C72.946129,84.225739 73.377525,83.556862 73.808922,82.887985 
	C73.838287,82.688477 73.867661,82.488960 73.725349,82.009384 
	C73.553665,81.729340 73.573616,81.689438 73.573616,81.689438 
	C73.573616,81.689438 73.626663,81.356941 73.680969,81.004639 
	C75.455284,78.426987 77.175293,76.201645 78.895302,73.976303 
	C78.895500,72.468170 78.895691,70.960037 78.536285,68.774467 
	C78.077408,66.739113 77.978127,65.381195 77.878838,64.023277 
	C78.678909,63.006485 79.478973,61.989693 80.702591,61.129101 
	C81.904884,61.669701 82.683632,62.054096 83.462379,62.438492 
	C83.725037,61.868866 83.987694,61.299236 84.250351,60.729610 
	C83.389099,60.445179 82.527840,60.160751 81.666588,59.876320 
M75.277473,81.882339 
	C75.469269,82.425407 75.661064,82.968483 75.852859,83.511551 
	C76.131271,83.384132 76.409676,83.256714 76.688080,83.129303 
	C76.362793,82.570518 76.037506,82.011734 75.277473,81.882339 
M86.586884,68.517044 
	C86.586884,68.517044 86.477211,68.582283 86.586884,68.517044 
z"/>
<path fill="#E7EFF6" opacity="1.000000" stroke="none" 
	d="
M81.811516,79.634186 
	C82.702812,75.552422 85.965446,72.439590 88.677002,73.059097 
	C87.938126,76.898476 86.992226,80.544212 86.015686,84.572411 
	C81.444443,85.966270 81.110687,83.441444 81.811516,79.634186 
z"/>
<path fill="#2A4696" opacity="1.000000" stroke="none" 
	d="
M41.461357,111.986420 
	C39.874565,111.316986 38.826023,110.347755 37.620602,110.077026 
	C35.933098,109.698013 34.128704,109.839424 33.043976,109.789200 
	C33.043976,91.692474 33.043976,74.196831 33.072849,56.215027 
	C33.766449,55.735806 34.588123,56.001804 35.071301,55.709076 
	C39.278484,53.160221 43.396362,53.447937 46.239128,55.297333 
	C47.969357,59.252861 49.411865,62.175373 50.517803,65.220131 
	C51.177780,67.037109 52.218403,69.519714 51.509140,70.879768 
	C49.361099,74.998726 50.331722,78.528824 51.961708,82.461319 
	C51.190071,82.525955 50.676102,82.314941 50.162132,82.103935 
	C51.164597,84.381416 52.167061,86.658905 53.169525,88.936386 
	C53.840961,89.398972 54.512394,89.861565 54.754734,90.731834 
	C54.055573,92.854576 53.785507,94.569626 53.515434,96.284683 
	C54.539665,96.217979 55.563896,96.151283 56.588127,96.084595 
	C56.588127,96.084595 56.604004,96.107872 56.617599,96.109528 
	C56.420223,97.730423 56.535988,99.492142 55.908936,100.929909 
	C55.245213,102.451767 53.933475,103.717964 52.791080,104.994026 
	C52.103355,105.762215 51.198681,106.336166 50.391502,106.997398 
	C51.361309,107.661331 52.288555,108.401688 53.311024,108.971046 
	C54.794804,109.797272 56.347336,110.500038 57.932243,111.612473 
	C52.639168,111.979103 47.284389,111.988701 41.461357,111.986420 
z"/>
<path fill="#2D3C8D" opacity="1.000000" stroke="none" 
	d="
M13.114429,110.281158 
	C13.506865,110.213181 14.082692,110.383858 14.815622,110.820312 
	C14.414423,110.897324 13.856122,110.708565 13.114429,110.281158 
z"/>
<path fill="#274898" opacity="1.000000" stroke="none" 
	d="
M41.508194,20.143051 
	C44.958656,13.468922 45.436928,3.900476 55.912582,2.405837 
	C58.038078,2.016034 60.083347,1.999589 62.566559,1.965104 
	C63.751961,1.966890 64.499428,1.986715 65.571091,2.416948 
	C65.170822,6.980907 65.600540,11.909446 63.453156,15.107596 
	C60.176857,19.987053 62.613647,22.770998 65.025818,26.156612 
	C62.035240,26.156612 59.044662,26.156612 56.054081,26.156612 
	C55.873276,26.616802 55.692467,27.076992 55.511658,27.537182 
	C53.163563,25.403114 50.815472,23.269045 48.467377,21.134975 
	C48.725773,20.810928 48.984165,20.486883 49.242561,20.162836 
	C46.814114,20.162836 44.385670,20.162836 41.508194,20.143051 
z"/>
<path fill="#274E9C" opacity="1.000000" stroke="none" 
	d="
M65.365120,26.382214 
	C62.613647,22.770998 60.176857,19.987053 63.453156,15.107596 
	C65.600540,11.909446 65.170822,6.980907 65.944878,2.427496 
	C74.680222,2.017038 83.365982,2.006440 92.518303,2.013206 
	C92.521523,2.341563 92.058189,2.652557 90.902420,3.031033 
	C88.275520,3.403454 86.149872,3.312908 84.462311,4.128644 
	C82.890236,4.888552 80.739510,6.552194 80.659904,7.923444 
	C80.365822,12.989210 81.310097,18.143209 80.848526,23.177832 
	C80.466812,27.341400 83.435310,33.868015 75.159233,34.236816 
	C75.040482,34.242107 74.975830,35.461788 74.885925,36.114697 
	C73.992706,33.313221 73.099472,30.511747 71.988174,27.026350 
	C70.425179,26.922245 68.064796,26.765028 65.365120,26.382214 
z"/>
<path fill="#2351A1" opacity="1.000000" stroke="none" 
	d="
M74.911697,36.088490 
	C74.975830,35.461788 75.040482,34.242107 75.159233,34.236816 
	C83.435310,33.868015 80.466812,27.341400 80.848526,23.177832 
	C81.310097,18.143209 80.365822,12.989210 80.659904,7.923444 
	C80.739510,6.552194 82.890236,4.888552 84.462311,4.128644 
	C86.149872,3.312908 88.275520,3.403454 90.608902,3.052118 
	C91.653587,3.464959 92.299347,3.924199 93.340485,4.664612 
	C92.030296,4.912984 90.960838,5.115721 89.891380,5.318459 
	C89.921120,5.602599 89.950851,5.886740 89.980591,6.170881 
	C92.670280,6.170881 95.359970,6.170881 97.722443,6.170881 
	C97.123863,8.499956 96.146431,10.673307 96.077469,12.875115 
	C95.865089,19.655264 95.942268,26.446968 96.022141,33.232830 
	C96.068420,37.165810 96.369965,41.034439 90.902817,41.705097 
	C90.184547,41.793205 89.645836,43.345108 88.742020,44.418945 
	C84.995445,43.751339 81.530800,42.883827 78.066162,42.016319 
	C77.323189,40.731438 76.580215,39.446552 75.804008,37.519737 
	C75.469414,36.599762 75.168045,36.321716 74.866676,36.043671 
	C74.866676,36.043671 74.937477,36.062283 74.911697,36.088490 
z"/>
<path fill="#285499" opacity="1.000000" stroke="none" 
	d="
M78.023354,42.377140 
	C81.530800,42.883827 84.995445,43.751339 88.736725,44.797562 
	C92.444229,47.076084 93.119133,49.481384 90.025917,52.522816 
	C88.749664,53.777706 87.736748,55.300423 86.302963,56.858582 
	C86.001854,57.015839 85.527016,57.005753 85.289642,57.008835 
	C86.433022,54.278214 87.813789,51.544506 89.489510,48.226830 
	C84.636276,48.011078 80.103081,47.595760 78.023354,42.377140 
z"/>
<path fill="#26509E" opacity="1.000000" stroke="none" 
	d="
M89.998344,108.997864 
	C90.090019,108.961372 90.183350,108.927002 90.140442,108.947937 
	C90.004196,109.003227 90.000000,109.000000 89.998344,108.997864 
z"/>
<path fill="#1E58A6" opacity="1.000000" stroke="none" 
	d="
M105.532898,16.550484 
	C105.476852,16.584103 105.588943,16.516867 105.532898,16.550484 
z"/>
<path fill="#0379CB" opacity="1.000000" stroke="none" 
	d="
M232.954895,89.803482 
	C232.899521,91.569031 232.808899,92.979958 232.718262,94.390877 
	C232.163803,94.348633 231.609329,94.306381 231.054855,94.264130 
	C231.458786,92.473198 231.862717,90.682266 232.266647,88.891342 
	C232.396240,88.938492 232.553558,88.954941 232.648392,89.040596 
	C232.765869,89.146713 232.831573,89.310173 232.954895,89.803482 
z"/>
<path fill="#1C6CB6" opacity="1.000000" stroke="none" 
	d="
M163.718933,27.209782 
	C164.247971,28.103802 164.497162,29.208105 164.673645,29.990175 
	C166.533279,29.990175 168.411346,29.990175 170.644714,29.995165 
	C169.406143,33.180332 167.879135,36.397270 166.166031,39.511860 
	C165.791687,40.192448 164.753265,40.507782 164.020660,40.991333 
	C163.624466,40.746330 163.228271,40.501328 162.832062,40.256325 
	C163.774033,38.078857 164.716003,35.901386 165.805893,33.381969 
	C162.502090,32.917171 160.613754,31.152248 163.718933,27.209782 
z"/>
<path fill="#1C6CB6" opacity="1.000000" stroke="none" 
	d="
M164.052979,21.414711 
	C164.241791,22.386559 164.405106,23.660995 164.281433,24.966118 
	C164.005447,23.903639 164.016464,22.810471 164.052979,21.414711 
z"/>
<path fill="#12A4E2" opacity="1.000000" stroke="none" 
	d="
M391.001312,42.999149 
	C391.541107,45.328625 392.079559,47.658966 392.618042,49.989311 
	C391.939392,50.068592 391.260712,50.147873 390.582062,50.227154 
	C390.720825,48.082985 390.859589,45.938820 390.997620,43.398872 
	C390.996857,43.003098 391.000000,43.000015 391.001312,42.999149 
z"/>
<path fill="#12A4E2" opacity="1.000000" stroke="none" 
	d="
M396.000000,46.999924 
	C395.698303,47.508930 395.396637,48.018013 395.094940,48.527100 
	C394.885986,48.346050 394.677032,48.165001 394.468079,47.983948 
	C394.789703,47.679455 395.111298,47.374958 395.716461,47.035309 
	C396.000000,47.000153 396.000000,47.000000 396.000000,46.999924 
z"/>
<path fill="#177DC4" opacity="1.000000" stroke="none" 
	d="
M251.665802,15.000078 
	C253.353027,15.085900 254.701782,15.174403 256.050537,15.262906 
	C256.033813,15.508757 256.017120,15.754606 256.000397,16.000456 
	C253.951691,16.000456 251.902985,16.000456 249.428055,16.000380 
	C249.776993,15.667789 250.552155,15.335275 251.665802,15.000078 
z"/>
<path fill="#177DC4" opacity="1.000000" stroke="none" 
	d="
M237.045425,28.396446 
	C237.286331,28.791389 237.284576,29.184258 237.254410,29.574930 
	C237.253571,29.585909 236.949036,29.573433 236.786133,29.571894 
	C236.790344,29.179283 236.794571,28.786674 237.045425,28.396446 
z"/>
<path fill="#E8F7F8" opacity="1.000000" stroke="none" 
	d="
M361.906860,63.347641 
	C362.232971,63.507256 362.593048,63.967606 362.964264,64.740326 
	C362.630524,64.584587 362.285645,64.116478 361.906860,63.347641 
z"/>
<path fill="#0F96D9" opacity="1.000000" stroke="none" 
	d="
M352.003540,90.997238 
	C352.126221,91.138443 352.245361,91.282410 352.364502,91.426392 
	C352.278351,91.377983 352.192169,91.329567 352.050232,91.144226 
	C351.994415,91.007294 352.000000,91.000000 352.003540,90.997238 
z"/>
<path fill="#1387CD" opacity="1.000000" stroke="none" 
	d="
M271.973816,25.727274 
	C271.997559,25.998028 271.500793,25.998613 271.252502,25.996552 
	C270.957520,25.463722 270.910858,24.932955 270.864197,24.402187 
	C271.226135,24.753632 271.588104,25.105076 271.973816,25.727274 
z"/>
<path fill="#187EC4" opacity="1.000000" stroke="none" 
	d="
M254.792206,66.202835 
	C254.429703,66.802544 254.004440,67.104057 253.579163,67.405563 
	C253.464615,66.959991 253.350067,66.514412 253.235519,66.068848 
	C253.733490,66.014114 254.231461,65.959381 254.792206,66.202835 
z"/>
<path fill="#1387CD" opacity="1.000000" stroke="none" 
	d="
M274.000793,58.000916 
	C273.878723,58.431522 273.755798,58.861210 273.632874,59.290894 
	C273.618073,58.941887 273.603271,58.592880 273.793579,58.121357 
	C273.998718,57.998840 274.000000,58.000000 274.000793,58.000916 
z"/>
<path fill="#108ED2" opacity="1.000000" stroke="none" 
	d="
M334.230560,54.744759 
	C335.324097,53.835819 336.468445,53.260162 337.612823,52.684502 
	C337.808014,53.218262 338.003174,53.752018 338.198364,54.285774 
	C336.892700,54.549862 335.587067,54.813950 334.230560,54.744759 
z"/>
<path fill="#1090D4" opacity="1.000000" stroke="none" 
	d="
M338.273315,97.400398 
	C338.147980,97.558258 337.931610,97.580826 337.715271,97.603394 
	C337.870941,97.490623 338.026642,97.377861 338.273315,97.400398 
z"/>
<path fill="#1F68B0" opacity="1.000000" stroke="none" 
	d="
M172.996582,27.002663 
	C172.874222,26.862267 172.755280,26.719221 172.636353,26.576176 
	C172.721924,26.624449 172.807480,26.672724 172.949097,26.857155 
	C173.005157,26.993309 173.000000,27.000011 172.996582,27.002663 
z"/>
<path fill="#FCFEFE" opacity="1.000000" stroke="none" 
	d="
M388.962585,21.688709 
	C388.180908,21.891695 387.361786,21.783239 386.317322,21.459972 
	C386.289581,20.947147 386.487183,20.649137 386.895203,20.181841 
	C387.712128,20.467459 388.318634,20.922363 388.962585,21.688709 
z"/>
<path fill="#F2F7F7" opacity="1.000000" stroke="none" 
	d="
M78.586052,73.829514 
	C77.175293,76.201645 75.455284,78.426987 73.536575,80.918076 
	C73.499557,78.263939 73.661240,75.344070 73.860138,71.752159 
	C76.001839,72.688316 77.139320,73.185524 78.586052,73.829514 
z"/>
<path fill="#274A9A" opacity="1.000000" stroke="none" 
	d="
M56.473526,95.781555 
	C55.563896,96.151283 54.539665,96.217979 53.515434,96.284683 
	C53.785507,94.569626 54.055573,92.854576 54.712212,91.066505 
	C55.518833,92.488503 55.938881,93.983521 56.473526,95.781555 
z"/>
<path fill="#274A9A" opacity="1.000000" stroke="none" 
	d="
M53.125950,88.547516 
	C52.167061,86.658905 51.164597,84.381416 50.162132,82.103935 
	C50.676102,82.314941 51.190071,82.525955 51.987316,82.849632 
	C52.541187,84.694412 52.811779,86.426537 53.125950,88.547516 
z"/>
<path fill="#2456A4" opacity="1.000000" stroke="none" 
	d="
M81.465042,59.925182 
	C82.527840,60.160751 83.389099,60.445179 84.250351,60.729610 
	C83.987694,61.299236 83.725037,61.868866 83.462379,62.438492 
	C82.683632,62.054096 81.904884,61.669701 80.985916,60.971069 
	C80.861679,60.353809 81.000954,60.126213 81.465042,59.925182 
z"/>
<path fill="#F2F7F7" opacity="1.000000" stroke="none" 
	d="
M77.624771,64.279510 
	C77.978127,65.381195 78.077408,66.739113 78.282196,68.493866 
	C78.048691,67.439041 77.709694,65.987389 77.624771,64.279510 
z"/>
<path fill="#F2F7F7" opacity="1.000000" stroke="none" 
	d="
M73.443436,82.983871 
	C73.377525,83.556862 72.946129,84.225739 72.247810,84.916199 
	C72.346581,84.318451 72.712265,83.699104 73.443436,82.983871 
z"/>
<path fill="#274E9C" opacity="1.000000" stroke="none" 
	d="
M74.934937,36.347908 
	C75.168045,36.321716 75.469414,36.599762 75.829994,37.190742 
	C75.593864,37.219833 75.298531,36.935986 74.934937,36.347908 
z"/>
<path fill="#F2F7F7" opacity="1.000000" stroke="none" 
	d="
M73.382126,81.537628 
	C73.573616,81.689438 73.553665,81.729340 73.581688,81.743179 
	C73.322914,81.687042 73.036125,81.617065 72.749329,81.547081 
	C72.896431,81.493324 73.043526,81.439568 73.382126,81.537628 
z"/>
<path fill="#26509E" opacity="1.000000" stroke="none" 
	d="
M75.494843,81.667641 
	C76.037506,82.011734 76.362793,82.570518 76.688080,83.129303 
	C76.409676,83.256714 76.131271,83.384132 75.852859,83.511551 
	C75.661064,82.968483 75.469269,82.425407 75.494843,81.667641 
z"/>
<path fill="#2456A4" opacity="1.000000" stroke="none" 
	d="
M86.532043,68.549667 
	C86.477211,68.582283 86.586884,68.517044 86.532043,68.549667 
z"/>
</svg>