<svg width="129" height="32" viewBox="0 0 129 32" fill="none" xmlns="http://www.w3.org/2000/svg">
<path fill-rule="evenodd" clip-rule="evenodd" d="M5.81173 0.00135884C3.85118 0.142542 2.08886 1.17794 1.00676 2.82435C0.468588 3.64318 0.136879 4.56782 0.0201454 5.57458C0.00393897 5.71435 0.000488281 26.3008 0.000488281 26.3008L0.0332698 26.5383C0.287633 28.3806 1.26045 29.9469 2.78278 30.9652C3.61448 31.5216 4.51286 31.846 5.5968 31.9814C5.78141 32.0045 26.1196 32.0161 26.5361 31.963C28.7384 31.6821 30.6339 30.2506 31.5073 28.2085C31.7794 27.5725 31.939 26.9142 31.9931 26.205C32.0049 26.0507 31.9973 5.71618 31.974 5.53771C31.8768 4.7941 31.6911 4.15627 31.3899 3.53139C30.6302 1.95536 29.2284 0.756647 27.5552 0.25236C27.2102 0.148352 26.8359 0.0716261 26.4189 0.0194086C26.2339 -0.00375821 5.90034 -0.00502641 5.81173 0.00135884ZM13.383 5.31771C13.1925 5.38096 13.0733 5.39762 12.8103 5.39771C12.6589 5.39777 12.5079 5.40673 12.4171 5.42108C12.336 5.43388 12.1999 5.44419 12.1148 5.44398C11.9587 5.4436 11.68 5.47896 11.422 5.53187C11.1954 5.57837 10.8008 5.71722 10.5962 5.82254C10.4946 5.87479 10.3717 5.93811 10.3231 5.96325C10.2447 6.00373 10.2203 6.00898 10.1092 6.00919C10.0403 6.00932 9.87303 5.99841 9.73754 5.98496C9.51813 5.96317 9.48588 5.95644 9.44261 5.92353C9.36426 5.86394 9.24613 5.81052 9.19282 5.81058C9.09599 5.81069 9.05615 5.85252 8.95816 6.057C8.83377 6.31657 8.76526 6.39872 8.52399 6.57764C8.1363 6.86517 7.96713 7.17439 7.94731 7.63172C7.93768 7.8542 7.93513 7.86587 7.88603 7.9126C7.82259 7.97302 7.21554 8.42714 7.14601 8.46621C7.10853 8.48727 7.05543 8.53977 7.0133 8.5974C6.97467 8.65024 6.88167 8.76647 6.80662 8.85568C6.58658 9.11729 6.54201 9.18989 6.43823 9.45596C6.40435 9.5428 6.31381 9.73524 6.23702 9.88361C5.96841 10.4027 5.96336 10.4141 5.96336 10.5039C5.96336 10.561 5.97723 10.6203 6.00948 10.7008C6.12171 10.981 6.14959 11.2101 6.10681 11.4998C6.06235 11.8009 6.0213 11.9282 5.86942 12.2362C5.79247 12.3923 5.72957 12.525 5.72962 12.5312C5.72968 12.5373 5.75261 12.5579 5.7806 12.577C5.89105 12.6522 5.95072 12.7682 5.95072 12.9078C5.95072 13.0171 5.98186 13.1345 6.03564 13.228C6.05663 13.2645 6.24684 13.4705 6.45834 13.6857C6.76622 13.9989 6.8529 14.096 6.89314 14.1723C6.98837 14.353 7.08533 14.5052 7.14099 14.5613C7.21668 14.6376 7.55673 14.8927 7.76748 15.0313C7.95876 15.157 8.26391 15.3351 8.46182 15.4364C8.62443 15.5196 8.72047 15.5258 8.87111 15.4629C9.16844 15.3386 9.20401 15.3339 9.82169 15.3384C10.4017 15.3426 10.3691 15.3477 10.8315 15.1817C11.1514 15.0668 11.3187 15.0217 11.5389 14.991C11.922 14.9376 11.9881 14.967 12.1659 15.2704C12.2482 15.4107 12.2937 15.4619 12.3725 15.5024C12.4261 15.5299 12.4447 15.5315 12.5864 15.52C12.6717 15.5131 12.8278 15.5072 12.9332 15.5069C13.1028 15.5064 13.1334 15.5103 13.1986 15.5404C13.2878 15.5814 13.3456 15.6341 13.3878 15.7128C13.4513 15.8311 13.4186 16.1162 13.2839 16.6197C13.1999 16.934 13.2134 17.0968 13.3394 17.287C13.3638 17.3239 13.5 17.4791 13.6422 17.632C13.7844 17.785 13.9335 17.9532 13.9735 18.0059C14.1212 18.2004 14.3273 18.7667 14.392 19.1561C14.4129 19.2819 14.43 19.3996 14.43 19.4177C14.43 19.4358 14.4532 19.5201 14.4816 19.6049C14.5613 19.843 14.5476 19.9673 14.4221 20.1443C14.145 20.535 14.0154 20.9684 13.9921 21.582C13.9794 21.9151 13.9976 21.9708 14.2644 22.4175C14.5252 22.8541 14.6505 23.1244 14.7098 23.3778C14.7254 23.4444 14.762 23.6649 14.7912 23.8677C14.8521 24.2902 14.9282 24.6521 14.9799 24.7639C14.9994 24.8063 15.0597 24.8956 15.1139 24.9623C15.2645 25.1481 15.4075 25.3774 15.5349 25.6373C15.7503 26.0769 15.7986 26.2385 15.7815 26.4621C15.7582 26.7646 15.8738 26.9934 16.1037 27.0998C16.243 27.1642 16.3807 27.1583 16.7605 27.0716C17.1201 26.9896 17.3508 26.9571 17.5754 26.9569C17.7538 26.9567 18.0589 26.9155 18.2315 26.8683C18.4033 26.8213 18.5234 26.7518 18.6848 26.6061C18.9953 26.3259 19.3163 25.9411 19.7021 25.3866C20.0129 24.9399 20.0619 24.8188 20.0761 24.4623C20.084 24.2626 20.0894 24.2254 20.1152 24.1895C20.1526 24.1373 20.3988 24.0122 20.4902 23.9989C20.5924 23.984 20.6617 23.9422 20.704 23.8701C20.791 23.7216 20.8363 23.3768 20.8022 23.1216C20.7929 23.0519 20.7655 22.9138 20.7413 22.8147C20.6508 22.4444 20.6964 22.3142 20.9731 22.1521C21.0544 22.1044 21.0854 22.0749 21.1372 21.9958C21.233 21.8492 21.3688 21.7565 21.5948 21.6832C21.9024 21.5835 22.1559 21.3349 22.2622 21.029C22.2998 20.9208 22.3048 20.7535 22.2829 20.3382C22.2732 20.1536 22.2758 20.0778 22.2971 19.9253C22.3297 19.6921 22.3212 19.654 22.2029 19.5066C22.0481 19.3139 21.9932 19.1696 21.9677 18.8888C21.9561 18.7612 21.9429 18.7062 21.8968 18.5938C21.8509 18.4819 21.8401 18.4375 21.8403 18.3598C21.8405 18.2656 21.8432 18.2591 22.0001 17.9764C22.2042 17.6086 22.2808 17.4943 22.4744 17.2683C22.9113 16.7581 23.29 16.4006 23.794 16.0226C24.1062 15.7886 24.3095 15.5761 24.4667 15.3197C24.9452 14.5389 25.2433 13.9454 25.2838 13.6926C25.3107 13.5243 25.279 13.3384 25.2147 13.2878C25.1575 13.2428 25.096 13.2503 24.9152 13.3244C24.786 13.3773 24.6837 13.4047 24.4242 13.4562C23.7459 13.5907 23.4216 13.6444 23.3391 13.636C23.1899 13.6209 23.1112 13.5333 23.0682 13.3347C23.053 13.2647 23.0302 13.1857 23.0176 13.1591C22.9895 13.0999 22.6006 12.7185 22.2801 12.4361C22.0072 12.1955 21.9407 12.1091 21.8833 11.9207C21.8076 11.6726 21.736 11.5498 21.5666 11.3773C21.4078 11.2157 21.3765 11.1445 21.3609 10.9085C21.3379 10.5594 21.2542 10.3609 21.0265 10.1153C20.9376 10.0195 20.9167 9.98599 20.8766 9.87513C20.851 9.80429 20.83 9.74026 20.83 9.73285C20.83 9.68935 20.7733 9.5676 20.7025 9.459C20.5782 9.26819 20.3433 8.75 20.3433 8.66634C20.3433 8.65465 20.3793 8.63068 20.4242 8.61247L20.505 8.57966L20.5668 8.39325C20.6219 8.22706 20.6286 8.19165 20.6286 8.06674C20.6287 7.91795 20.6261 7.90484 20.5332 7.59372L20.4734 7.39351L20.2203 7.37611C20.0449 7.36404 19.9221 7.34713 19.8198 7.32091C19.7083 7.29232 19.6346 7.28301 19.5175 7.28273C19.3527 7.28233 19.2636 7.30224 19.0757 7.38144C18.9207 7.44677 18.8448 7.43592 18.052 7.23516L17.3755 7.0638L17.2825 6.97684C17.1538 6.85639 17.0613 6.82218 16.8927 6.83267C16.7281 6.8429 16.4994 6.91492 16.4255 6.97979C16.3523 7.04403 16.3326 7.10012 16.3174 7.28665C16.3034 7.45925 16.2684 7.56592 16.2167 7.59359C16.2002 7.60241 16.1629 7.6096 16.1337 7.6096C16.0447 7.6096 15.3049 7.32001 15.2191 7.25154C15.1879 7.22659 15.1613 7.18617 15.1461 7.14053C15.0952 6.9873 14.9444 6.91525 14.5497 6.85573C14.2233 6.80649 13.9909 6.7276 13.7677 6.59025L13.6459 6.51528L13.681 6.47626C13.7004 6.4548 13.7581 6.39136 13.8094 6.33528C13.9654 6.16472 13.9821 6.07548 13.891 5.90148C13.821 5.76794 13.8242 5.69739 13.9047 5.59403C13.996 5.47679 13.9713 5.43086 13.809 5.41614C13.7391 5.4098 13.7185 5.40165 13.6996 5.37279C13.6673 5.32345 13.5906 5.27965 13.5378 5.28036C13.5135 5.2807 13.4438 5.29749 13.383 5.31771ZM24.5977 20.1713C24.5283 20.2136 24.4697 20.289 24.3706 20.4638C24.3201 20.5528 24.2493 20.6572 24.2134 20.6958C24.1774 20.7344 24.1478 20.7771 24.1476 20.7906C24.1466 20.872 24.019 21.0449 23.9194 21.1C23.8951 21.1135 23.7491 21.1776 23.595 21.2426L23.3148 21.3608L23.2456 21.4984C23.2076 21.574 23.1661 21.6815 23.1535 21.7372C23.1237 21.8682 23.1241 22.0664 23.1546 22.2198C23.1849 22.3724 23.1716 22.4498 23.0809 22.6493C22.9625 22.9097 22.9302 23.0641 22.9543 23.2548C22.9735 23.4066 23.0003 23.4946 23.0984 23.7266C23.1622 23.8778 23.1978 23.9416 23.2484 23.9956C23.324 24.0763 23.4728 24.17 23.5253 24.17C23.5448 24.17 23.6126 24.1471 23.6761 24.1192C23.7395 24.0913 23.8332 24.0609 23.8843 24.0517C23.9966 24.0313 24.0429 24.0086 24.1109 23.9406C24.2079 23.8436 24.2665 23.6887 24.3756 23.2409C24.4121 23.0909 24.4924 22.8055 24.554 22.6068C24.6897 22.169 24.7559 21.9151 24.7905 21.6999C24.812 21.5663 24.8294 21.5117 24.8888 21.3902L24.9611 21.2428L24.9552 20.9036C24.9501 20.6045 24.9456 20.5528 24.9172 20.4664C24.8629 20.301 24.7385 20.144 24.6618 20.1442C24.6509 20.1443 24.6221 20.1564 24.5977 20.1713Z" fill="url(#paint0_linear_3_907)"/>
<path fill-rule="evenodd" clip-rule="evenodd" d="M48.5072 2.62239C48.1175 2.70899 47.7649 2.93889 47.5169 3.26812C47.3756 3.45565 47.3266 3.54754 47.0478 4.14896C46.6045 5.10521 39.8687 19.6695 39.8169 19.9666C39.7206 20.5185 39.8937 21.0164 40.3273 21.4352C40.8881 21.9768 41.74 22.1248 42.4027 21.7958C42.7837 21.6066 43.0627 21.2965 43.2727 20.8286C43.5678 20.1711 48.8848 8.64538 48.8848 8.64538L48.9223 8.71958C48.9841 8.84156 57.3443 26.8969 57.4042 27.0202C57.7781 27.7906 58.3749 28.2014 59.1203 28.2014C59.9269 28.2014 60.622 27.6749 60.8217 26.9128C60.9052 26.5939 60.8966 26.1772 60.7995 25.8421C60.748 25.6644 50.6127 3.81902 50.5672 3.72418C50.2929 3.15194 49.8806 2.79194 49.329 2.64318C49.1494 2.59471 48.6846 2.58295 48.5072 2.62239ZM72.7913 2.61175C72.1063 2.65077 71.4266 2.75813 70.7166 2.9395C68.7169 3.4503 67.1342 4.46532 65.9842 5.97446C65.2177 6.98031 64.7619 8.03265 64.5537 9.27659C64.4292 10.021 64.3937 11.0885 64.4818 11.4388C64.625 12.0081 65.0862 12.4875 65.6666 12.6706C66.373 12.8934 67.209 12.6204 67.6485 12.0233C67.9053 11.6746 67.9728 11.4221 68.0004 10.7078C68.0184 10.2397 68.0523 9.97437 68.1413 9.60422C68.3205 8.85915 68.634 8.26726 69.1119 7.77186C69.354 7.52082 69.5009 7.3991 69.7941 7.20637C70.3324 6.8525 70.7883 6.62973 71.3632 6.4396C72.0177 6.22315 72.633 6.13162 73.2945 6.15231C74.1299 6.17843 74.9457 6.37658 75.8059 6.76225C76.9459 7.27343 77.7226 8.08231 78.0878 9.13865C78.4279 10.1225 78.4879 11.2315 78.2584 12.2906C78.0967 13.0366 77.8858 13.4948 77.5001 13.9382C77.2128 14.2686 76.7168 14.6138 76.0362 14.9572C75.2547 15.3515 74.7225 15.5485 73.3376 15.9562C70.8237 16.6963 69.4797 17.2571 68.2853 18.0642C67.7603 18.4189 67.3772 18.7391 66.921 19.2045C66.0343 20.109 64.9733 22.4162 64.9733 22.4162C64.6989 23.2312 64.5365 24.1184 64.4669 25.1837C64.3901 26.3588 64.4021 26.6852 64.5355 27.0509C64.7461 27.6279 65.2153 28.0287 65.8453 28.1695L66.0264 28.21H73.6308L73.771 28.1725C74.1174 28.08 74.3864 27.9206 74.6324 27.662C75.0718 27.2003 75.2236 26.5701 75.0445 25.9519C74.872 25.3567 74.396 24.8974 73.7803 24.7323C73.5814 24.679 68.1021 24.6664 68.1021 24.6664L68.1136 24.5845C68.2539 23.5843 68.6357 22.6813 69.2205 21.9671C69.7125 21.3662 70.3855 20.8683 71.2263 20.483C72.05 20.1056 72.9579 19.7833 74.4757 19.3296C75.9479 18.8895 76.7934 18.5754 77.6555 18.1482C78.1241 17.916 78.4147 17.7499 78.7866 17.5018C80.3878 16.4335 81.3697 14.9513 81.7594 13.0145C82.0518 11.5613 81.9986 9.75305 81.6246 8.43071C81.0585 6.4291 79.7997 4.90466 77.788 3.78455C76.6166 3.13226 75.3323 2.7357 74.0503 2.63032C73.7364 2.60452 73.0864 2.59494 72.7913 2.61175ZM94.4264 2.60499C92.2191 2.71564 90.3562 3.31566 88.9516 4.36838C88.364 4.80878 87.8192 5.36102 87.4149 5.92602C86.778 6.81613 86.4048 7.80386 86.2697 8.95759C86.231 9.28761 86.2177 9.98711 86.243 10.3634C86.2959 11.1516 86.4127 11.7481 86.6254 12.3161C87.2411 13.9608 88.6035 15.2411 90.6735 16.1204C91.5966 16.5125 92.4185 16.7716 94.4264 17.3035C96.8555 17.9468 97.8949 18.3018 98.7287 18.7726C99.0423 18.9497 99.2364 19.09 99.4453 19.2905C99.7826 19.6142 99.9887 19.9747 100.093 20.4245C100.137 20.6125 100.155 21.1003 100.127 21.354C100.017 22.3633 99.5498 23.1167 98.6773 23.6919C98.0035 24.1361 97.0393 24.4452 95.8995 24.5824C95.6325 24.6146 95.4881 24.6209 94.9955 24.622C94.6233 24.6228 94.3273 24.615 94.185 24.6005C92.6151 24.4405 91.3206 24.0081 90.3146 23.3076C90.0395 23.1161 89.8179 22.9289 89.512 22.6296C89.1886 22.3132 89.0782 22.2277 88.8942 22.1514C88.4001 21.9463 87.6614 22.0431 87.1298 22.3827C87.0071 22.4611 86.8073 22.6531 86.7174 22.7791C86.3848 23.2451 86.3085 23.936 86.5298 24.4768C86.6397 24.7452 86.7998 24.9614 87.1177 25.2704C88.0883 26.2138 89.128 26.8726 90.4441 27.3782C91.9751 27.9664 93.4917 28.2262 95.2192 28.196C96.9442 28.1659 98.3202 27.8516 99.7202 27.1679C100.886 26.5986 101.709 25.9457 102.374 25.063C103.079 24.1269 103.496 23.0891 103.664 21.8557C103.716 21.4711 103.72 20.5893 103.672 20.2004C103.576 19.4264 103.418 18.87 103.126 18.2777C102.69 17.391 102.015 16.6511 101.047 15.9988C100.274 15.4773 99.46 15.1039 98.1346 14.6622C97.4627 14.4382 96.9228 14.2839 95.8806 14.0178C94.7874 13.7386 94.3797 13.6269 93.8006 13.4477C91.9938 12.8889 90.9583 12.3651 90.4041 11.7297C89.8797 11.1285 89.6968 10.3905 89.824 9.38868C89.8912 8.85849 90.0553 8.40621 90.3346 7.98033C90.5105 7.71221 90.866 7.36034 91.1568 7.16654C91.8903 6.67777 93.0295 6.31024 94.185 6.18966C94.3273 6.17481 94.6726 6.15603 94.9524 6.14793C95.411 6.13463 95.4772 6.12896 95.6249 6.09022C95.8252 6.03766 95.9474 5.98448 96.1114 5.87847C96.4449 5.66297 96.7475 5.23292 96.8569 4.81914C96.897 4.66728 96.9112 4.31943 96.8842 4.15184C96.8059 3.66655 96.4962 3.16873 96.1093 2.9063C95.9151 2.7746 95.7038 2.68819 95.4519 2.63751C95.3243 2.61185 94.6907 2.59175 94.4264 2.60499ZM126.137 2.60635C125.733 2.65684 125.389 2.83205 125.101 3.13394C124.891 3.35488 124.801 3.51436 124.601 4.0236C124.128 5.22664 117.428 21.663 117.428 21.663C117.428 21.663 112.813 10.2759 112.77 10.1905C112.475 9.598 111.984 9.25587 111.359 9.20746C110.792 9.16348 110.145 9.43591 109.801 9.86305C109.526 10.2054 109.406 10.5796 109.425 11.0354C109.442 11.4378 115.771 27.0403 115.839 27.1754C115.943 27.3837 116.052 27.5388 116.205 27.6932C116.905 28.4017 118.014 28.3855 118.713 27.6567C118.864 27.5001 119.015 27.2828 119.092 27.1107C119.151 26.9821 128.085 4.89208 128.133 4.71986C128.164 4.6085 128.195 4.54597 128.196 4.30144C128.218 4.30144 128.172 4.00008 128.172 4.00008L128.11 3.82312C128.028 3.59118 127.911 3.39921 127.741 3.21845C127.425 2.8823 127.029 2.67479 126.587 2.61322C126.46 2.59563 126.249 2.5924 126.137 2.60635Z" fill="url(#paint1_linear_3_907)"/>
<path d="M101.72 8.72301C102.712 8.72301 103.517 7.91844 103.517 6.92596C103.517 5.93347 102.712 5.12891 101.72 5.12891C100.727 5.12891 99.9229 5.93347 99.9229 6.92596C99.9229 7.91844 100.727 8.72301 101.72 8.72301Z" fill="url(#paint2_linear_3_907)"/>
<path d="M80.2131 28.225C81.2056 28.225 82.0101 27.4204 82.0101 26.4279C82.0101 25.4354 81.2056 24.6309 80.2131 24.6309C79.2206 24.6309 78.416 25.4354 78.416 26.4279C78.416 27.4204 79.2206 28.225 80.2131 28.225Z" fill="url(#paint3_linear_3_907)"/>
<path d="M108.543 6.17808C109.536 6.17808 110.34 5.37352 110.34 4.38103C110.34 3.38855 109.536 2.58398 108.543 2.58398C107.551 2.58398 106.746 3.38855 106.746 4.38103C106.746 5.37352 107.551 6.17808 108.543 6.17808Z" fill="url(#paint4_linear_3_907)"/>
<path d="M38.7311 28.1722C39.7236 28.1722 40.5282 27.3677 40.5282 26.3752C40.5282 25.3827 39.7236 24.5781 38.7311 24.5781C37.7386 24.5781 36.9341 25.3827 36.9341 26.3752C36.9341 27.3677 37.7386 28.1722 38.7311 28.1722Z" fill="url(#paint5_linear_3_907)"/>
<defs>
<linearGradient id="paint0_linear_3_907" x1="0.110792" y1="90.8913" x2="112.111" y2="90.8913" gradientUnits="userSpaceOnUse">
<stop stop-color="#2D388A"/>
<stop offset="1" stop-color="#00AEEF"/>
</linearGradient>
<linearGradient id="paint1_linear_3_907" x1="-6.15175" y1="108.881" x2="124.813" y2="108.881" gradientUnits="userSpaceOnUse">
<stop stop-color="#2D388A"/>
<stop offset="1" stop-color="#00AEEF"/>
</linearGradient>
<linearGradient id="paint2_linear_3_907" x1="-6.15137" y1="108.881" x2="124.813" y2="108.881" gradientUnits="userSpaceOnUse">
<stop stop-color="#2D388A"/>
<stop offset="1" stop-color="#00AEEF"/>
</linearGradient>
<linearGradient id="paint3_linear_3_907" x1="-6.15171" y1="108.881" x2="124.813" y2="108.881" gradientUnits="userSpaceOnUse">
<stop stop-color="#2D388A"/>
<stop offset="1" stop-color="#00AEEF"/>
</linearGradient>
<linearGradient id="paint4_linear_3_907" x1="-6.15195" y1="108.881" x2="124.813" y2="108.881" gradientUnits="userSpaceOnUse">
<stop stop-color="#2D388A"/>
<stop offset="1" stop-color="#00AEEF"/>
</linearGradient>
<linearGradient id="paint5_linear_3_907" x1="-6.15163" y1="108.882" x2="124.813" y2="108.882" gradientUnits="userSpaceOnUse">
<stop stop-color="#2D388A"/>
<stop offset="1" stop-color="#00AEEF"/>
</linearGradient>
</defs>
</svg>
