<svg width="134" height="40" viewBox="0 0 134 40" fill="none" xmlns="http://www.w3.org/2000/svg">
<g clip-path="url(#clip0_3_973)">
<path d="M82.9354 31.2489C75.2432 36.9186 64.0939 39.9436 54.4945 39.9436C41.0346 39.9436 28.9172 34.9653 19.7499 26.6854C19.0297 26.0343 19.675 25.147 20.5393 25.654C30.4326 31.4102 42.6652 34.8731 55.3011 34.8731C63.823 34.8731 73.1977 33.11 81.8176 29.4511C83.1198 28.898 84.2088 30.3039 82.9354 31.2489Z" fill="#FF9900"/>
<path d="M86.1334 27.5907C85.1538 26.3346 79.6339 26.9973 77.1563 27.2911C76.4014 27.3833 76.2862 26.7265 76.9661 26.254C81.3625 23.1598 88.5764 24.0529 89.4177 25.0901C90.2589 26.133 89.1987 33.3642 85.0674 36.8156C84.4336 37.3457 83.8286 37.0634 84.1109 36.3604C85.0386 34.0441 87.1187 28.8526 86.1334 27.5907Z" fill="#FF9900"/>
<path d="M77.3293 4.40991V1.40218C77.3293 0.946984 77.675 0.641602 78.0899 0.641602H91.5556C91.9877 0.641602 92.3334 0.952747 92.3334 1.40218V3.97777C92.3277 4.40991 91.9647 4.97458 91.3193 5.86768L84.3416 15.8301C86.9345 15.7667 89.6714 16.1528 92.0223 17.478C92.5524 17.7776 92.6964 18.2155 92.7368 18.6477V21.8571C92.7368 22.295 92.2528 22.8078 91.7457 22.5427C87.6029 20.3705 82.1002 20.1343 77.5195 22.5658C77.0528 22.8193 76.563 22.3123 76.563 21.8744V18.8263C76.563 18.3365 76.5687 17.501 77.0585 16.7578L85.1425 5.16473H78.1072C77.675 5.16473 77.3293 4.85935 77.3293 4.40991Z" fill="#221F1F"/>
<path d="M28.2084 23.1769H24.1116C23.7198 23.1481 23.4087 22.8542 23.3799 22.4797V1.45435C23.3799 1.03373 23.7314 0.69953 24.1693 0.69953H27.9894C28.387 0.716804 28.7039 1.0222 28.7327 1.40249V4.15094H28.8076C29.8045 1.49468 31.6771 0.255859 34.2008 0.255859C36.7649 0.255859 38.3667 1.49468 39.5191 4.15094C40.5101 1.49468 42.7631 0.255859 45.1773 0.255859C46.8944 0.255859 48.7728 0.964578 49.9194 2.55487C51.2158 4.32379 50.9508 6.89362 50.9508 9.14654L50.945 22.4163C50.945 22.8369 50.5935 23.1769 50.1556 23.1769H46.0647C45.6556 23.1481 45.3271 22.8196 45.3271 22.4163V11.2727C45.3271 10.3854 45.4078 8.17277 45.2119 7.33153C44.9065 5.91985 43.9904 5.52227 42.8034 5.52227C41.8123 5.52227 40.7752 6.1849 40.3546 7.2451C39.9339 8.3053 39.9743 10.08 39.9743 11.2727V22.4163C39.9743 22.8369 39.6228 23.1769 39.1849 23.1769H35.0939C34.6791 23.1481 34.3564 22.8196 34.3564 22.4163L34.3506 11.2727C34.3506 8.92759 34.7367 5.47618 31.8269 5.47618C28.8825 5.47618 28.9978 8.84115 28.9978 11.2727V22.4163C28.9978 22.8369 28.6463 23.1769 28.2084 23.1769Z" fill="#221F1F"/>
<path d="M103.926 0.255859C110.005 0.255859 113.295 5.47618 113.295 12.1139C113.295 18.527 109.659 23.6148 103.926 23.6148C97.9568 23.6148 94.707 18.3945 94.707 11.8892C94.707 5.34366 97.9971 0.255859 103.926 0.255859ZM103.961 4.54851C100.941 4.54851 100.751 8.66253 100.751 11.2266C100.751 13.7964 100.711 19.2818 103.926 19.2818C107.101 19.2818 107.251 14.8566 107.251 12.16C107.251 10.3854 107.176 8.26496 106.64 6.58247C106.179 5.11894 105.263 4.54851 103.961 4.54851Z" fill="#221F1F"/>
<path d="M121.178 23.1769H117.098C116.689 23.1481 116.361 22.8196 116.361 22.4163L116.355 1.3852C116.39 0.99915 116.73 0.69953 117.144 0.69953H120.941C121.299 0.716804 121.593 0.958818 121.673 1.28725V4.50241H121.748C122.895 1.6272 124.502 0.255859 127.331 0.255859C129.17 0.255859 130.962 0.918484 132.114 2.73349C133.186 4.41598 133.186 7.2451 133.186 9.27906V22.5143C133.14 22.883 132.8 23.1769 132.396 23.1769H128.288C127.913 23.1481 127.602 22.8715 127.562 22.5143V11.0941C127.562 8.79506 127.827 5.43008 124.998 5.43008C124.001 5.43008 123.085 6.09847 122.63 7.11257C122.054 8.39749 121.979 9.67664 121.979 11.0941V22.4163C121.973 22.8369 121.616 23.1769 121.178 23.1769Z" fill="#221F1F"/>
<path d="M66.5947 13.1333V12.246C63.6331 12.246 60.5043 12.8798 60.5043 16.3715C60.5043 18.1405 61.4205 19.3389 62.9935 19.3389C64.1459 19.3389 65.1773 18.6302 65.8284 17.4778C66.635 16.0604 66.5947 14.7294 66.5947 13.1333ZM70.726 23.1188C70.4552 23.3608 70.0634 23.3781 69.758 23.2167C68.3982 22.0874 68.1562 21.563 67.4071 20.4856C65.16 22.7788 63.5697 23.4645 60.6541 23.4645C57.2085 23.4645 54.5234 21.3383 54.5234 17.0803C54.5234 13.7556 56.3269 11.4912 58.891 10.3849C61.1151 9.40534 64.2208 9.23249 66.5947 8.96168V8.43158C66.5947 7.45781 66.6696 6.30542 66.0992 5.46418C65.5979 4.70936 64.6414 4.39822 63.8002 4.39822C62.2387 4.39822 60.8443 5.19913 60.5043 6.85857C60.4352 7.22733 60.1644 7.59033 59.7956 7.60762L55.8199 7.18123C55.4857 7.10633 55.1169 6.83552 55.2091 6.32271C56.1253 1.50572 60.4755 0.0537109 64.3706 0.0537109C66.3642 0.0537109 68.9686 0.58381 70.5416 2.09344C72.5353 3.95455 72.3451 6.43794 72.3451 9.1403V15.5245C72.3451 17.4433 73.1403 18.2845 73.8893 19.3217C74.1544 19.6904 74.212 20.1341 73.8778 20.4107C73.0423 21.1079 71.5557 22.4043 70.7375 23.1303L70.726 23.1188Z" fill="#221F1F"/>
<path d="M12.8877 13.1333V12.246C9.92604 12.246 6.7973 12.8798 6.7973 16.3715C6.7973 18.1405 7.71345 19.3389 9.28646 19.3389C10.4388 19.3389 11.4702 18.6302 12.1213 17.4778C12.928 16.0604 12.8877 14.7294 12.8877 13.1333ZM17.019 23.1188C16.7482 23.3608 16.3564 23.3781 16.051 23.2167C14.6912 22.0874 14.4492 21.563 13.7001 20.4856C11.453 22.7788 9.86266 23.4645 6.94711 23.4645C3.50147 23.4645 0.816406 21.3383 0.816406 17.0803C0.816406 13.7556 2.61989 11.4912 5.18396 10.3849C7.40807 9.40534 10.5138 9.23249 12.8877 8.96168V8.43158C12.8877 7.45781 12.9626 6.30542 12.3922 5.46418C11.8909 4.70936 10.9344 4.39822 10.0931 4.39822C8.53165 4.39822 7.13726 5.19913 6.7973 6.85857C6.72816 7.22733 6.45735 7.59033 6.08858 7.60762L2.11284 7.18123C1.77865 7.10633 1.40989 6.83552 1.50208 6.32271C2.41823 1.50572 6.76849 0.0537109 10.6636 0.0537109C12.6572 0.0537109 15.2616 0.58381 16.8346 2.09344C18.8282 3.95455 18.6381 6.43794 18.6381 9.1403V15.5245C18.6381 17.4433 19.4332 18.2845 20.1823 19.3217C20.4473 19.6904 20.505 20.1341 20.1708 20.4107C19.3353 21.1079 17.8487 22.4043 17.0305 23.1303L17.019 23.1188Z" fill="#221F1F"/>
</g>
<defs>
<clipPath id="clip0_3_973">
<rect width="132.527" height="40" fill="white" transform="translate(0.736328)"/>
</clipPath>
</defs>
</svg>
